<?xml version="1.0" encoding="UTF-8" standalone="no"?>
<!-- Svg Vector Icons : http://www.onlinewebfonts.com/icon -->

<svg
   version="1.1"
   x="0px"
   y="0px"
   viewBox="0 0 630 557.94195"
   enable-background="new 0 0 1000 1000"
   xml:space="preserve"
   id="svg77"
   sodipodi:docname="banana.svg"
   width="630"
   height="557.94196"
   inkscape:version="1.1 (ce6663b3b7, 2021-05-25)"
   xmlns:inkscape="http://www.inkscape.org/namespaces/inkscape"
   xmlns:sodipodi="http://sodipodi.sourceforge.net/DTD/sodipodi-0.dtd"
   xmlns="http://www.w3.org/2000/svg"
   xmlns:svg="http://www.w3.org/2000/svg"><defs
   id="defs81"><linearGradient
     id="linearGradient1022"
     inkscape:swatch="solid"><stop
       style="stop-color:#8c0000;stop-opacity:1;"
       offset="0"
       id="stop1020" /></linearGradient></defs><sodipodi:namedview
   id="namedview79"
   pagecolor="#897777"
   bordercolor="#666666"
   borderopacity="1.0"
   inkscape:pageshadow="2"
   inkscape:pageopacity="0.24705882"
   inkscape:pagecheckerboard="0"
   showgrid="false"
   fit-margin-top="0"
   fit-margin-left="0"
   fit-margin-right="0"
   fit-margin-bottom="0"
   inkscape:zoom="1.1834063"
   inkscape:cx="88.304411"
   inkscape:cy="192.24166"
   inkscape:window-width="1920"
   inkscape:window-height="1016"
   inkscape:window-x="0"
   inkscape:window-y="27"
   inkscape:window-maximized="1"
   inkscape:current-layer="path71" />
<metadata
   id="metadata69"> Svg Vector Icons : http://www.onlinewebfonts.com/icon </metadata>
<g
   id="g75"
   transform="matrix(0.69901583,0.23117738,-0.23117738,0.69901583,107.19108,-187.4379)"
   style="fill:#feffff;fill-opacity:1;stroke:#feffff;stroke-width:0;stroke-miterlimit:4;stroke-dasharray:none;stroke-opacity:1"><g
     transform="matrix(0.1,0,0,-0.1,0,512)"
     id="g73"
     style="fill:#feffff;fill-opacity:1;stroke:#feffff;stroke-width:0;stroke-miterlimit:4;stroke-dasharray:none;stroke-opacity:1"><g
       id="path71"><path
         style="color:#000000;fill:none;stroke:#feffff;stroke-width:81.182;stroke-miterlimit:4;stroke-dasharray:none;stroke-opacity:1"
         d="m 5671.5894,4271.2606 c -139.0087,-40.9 -212.6117,-135.6787 -214.234,-268.1981 0,-147.2058 34.3253,-425.138 62.1612,-488.9215 14.6864,-34.3252 70.3582,-109.5505 124.2369,-168.3816 53.9641,-57.2087 104.6835,-124.2369 114.5029,-150.4505 71.9806,-184.7758 91.534,-645.8613 67.0282,-1573.0702 -16.3088,-578.8332 -21.2612,-642.61669 -57.2088,-801.26428 C 5658.5253,358.26652 5465.5525,9.9761495 5118.8844,-346.5113 c -300.901,-310.72044 -650.8137,-552.70497 -1079.1963,-747.3002 -112.7952,-52.3417 -402.2545,-160.2699 -644.239,-243.6068 -585.4079,-197.8399 -838.8342,-299.1933 -1211.6304,-482.3468 -426.7603,-209.2816 -742.3478,-423.5156 -848.6536,-577.2108 l -42.5224,-62.1611 v -413.6963 -412.0738 l 45.7671,-42.5224 c 58.8311,-55.5864 708.0225,-433.335 894.4206,-520.002 376.0409,-178.2011 837.2118,-251.804 1438.9285,-232.1651 430.0049,14.6864 784.8701,71.9805 1198.5663,192.9728 974.5982,286.1292 1952.3558,882.9789 2676.7724,1635.146 590.3603,613.2438 920.6342,1402.98094 1041.6265,2475.68796 29.4582,273.06512 29.4582,1201.81094 -1.6224,1357.21394 -106.3058,546.1302 -469.2826,1206.7633 -866.67,1581.1819 -196.2176,186.3981 -380.9933,295.9486 -727.6614,428.3826 -353.2427,137.3865 -448.0214,199.4622 -510.1826,336.8487 -73.6029,165.1369 -233.8729,284.5068 -451.3515,335.2262 -111.0875,26.1282 -287.6662,29.3729 -359.6468,8.1971 z"
         id="path31"
         sodipodi:nodetypes="ccccccccccccccccccccccccccc" /><path
         style="color:#000000;stroke:none;stroke-width:0;-inkscape-stroke:none"
         d="m 3098.8104,-4066.3338 c -31.9775,2.8629 -63.4802,6.1047 -94.5219,9.7294 31.0417,-3.6247 62.5444,-6.8665 94.5219,-9.7294 z m 1544.133,118.2316 c 49.5429,12.2309 99.6116,25.3955 150.4698,39.5345 -50.8582,-14.139 -100.9269,-27.3036 -150.4698,-39.5345 z m 934.7072,707.865 c 30.9103,14.7427 61.741,29.7738 92.4822,45.088 -30.7412,-15.3142 -61.5719,-30.3453 -92.4822,-45.088 z m -3933.8297,146.1322 c -3.4237,4.5924 -5.5943,8.7506 -6.7508,12.6445 1.1565,-3.8939 3.3271,-8.0521 6.7508,-12.6445 z m 663.2741,129.6954 c 41.6471,6.7988 82.7186,14.0193 123.7233,21.7535 -41.0047,-7.7342 -82.0762,-14.9547 -123.7233,-21.7535 z m 886.1772,589.4634 c 42.0771,14.6639 84.0383,29.7875 125.8646,45.3597 -41.8263,-15.5722 -83.7875,-30.6958 -125.8646,-45.3597 z m 3763.7409,39.6412 c 25.6564,22.452 51.065,45.0966 76.2123,67.9287 -25.1473,-22.8321 -50.5559,-45.4767 -76.2123,-67.9287 z m -3715.5077,576.6388 c 64.5125,22.6371 133.3301,46.3696 207.3801,71.5726 -74.05,-25.203 -142.8676,-48.9355 -207.3801,-71.5726 z m -664.8484,119.8408 c 43.3425,18.3595 87.4645,36.485 133.2475,54.7256 -45.783,-18.2406 -89.905,-36.3661 -133.2475,-54.7256 z m 133.2475,54.7256 c 45.783,18.2406 93.2271,36.596 143.2137,55.4144 -49.9866,-18.8184 -97.4307,-37.1738 -143.2137,-55.4144 z m 915.3202,-43.3618 c 40.3461,13.7772 79.763,27.545 118.3116,41.3306 -38.5486,-13.7856 -77.9655,-27.5534 -118.3116,-41.3306 z m 991.3273,439.659 c 27.7255,16.5172 55.1165,33.3185 82.2342,50.4345 -27.1177,-17.116 -54.5087,-33.9173 -82.2342,-50.4345 z m 3250.4031,5.2498 c 17.5838,37.077 34.5881,74.6999 51.0216,112.8866 -16.4335,-38.1867 -33.4378,-75.8096 -51.0216,-112.8866 z m -1976.8994,105.6755 c 34.532,36.3773 68.205,72.9119 101.0126,109.59455 -32.8076,-36.68265 -66.4806,-73.21725 -101.0126,-109.59455 z m -708.277,299.38208 c 27.7198,24.35547 54.9327,49.08309 81.6256,74.1676 -26.6929,-25.08451 -53.9058,-49.81213 -81.6256,-74.1676 z m 1081.0195,144.09425 c 27.5579,37.4842 54.2321,75.08667 80.0146,112.79985 -25.7825,-37.71318 -52.4567,-75.31565 -80.0146,-112.79985 z M 8225.3837,93.932812 c 4.9298,38.580018 9.4255,77.644458 13.5134,117.501108 -4.0879,-39.85665 -8.5836,-78.92109 -13.5134,-117.501108 z M 6433.6607,430.24777 c 8.7841,30.45083 16.6496,58.55212 23.6847,85.01599 -7.0351,-26.46387 -14.9006,-54.56516 -23.6847,-85.01599 z m 56.6518,229.84401 c 4.0732,22.76158 7.496,45.30942 10.3564,68.35567 -2.8604,-23.04625 -6.2832,-45.59409 -10.3564,-68.35567 z m 10.3564,68.35567 c 2.8604,23.04625 5.1578,46.59105 6.9843,71.34586 -1.8265,-24.75481 -4.1239,-48.29961 -6.9843,-71.34586 z m 6.9843,71.34586 c 1.8265,24.7548 3.1814,50.71977 4.1525,78.60702 -0.9711,-27.88725 -2.326,-53.85222 -4.1525,-78.60702 z m 2093.6634,622.07359 c -1.8265,37.0469 -3.9235,69.6511 -6.2923,96.6365 2.3688,-26.9854 4.4658,-59.5896 6.2923,-96.6365 z M 5537.5474,3481.6243 c -8.1264,12.7985 -14.3596,23.9354 -18.0312,32.5167 3.6716,-8.5813 9.9048,-19.7182 18.0312,-32.5167 z m 284.7347,272.7722 c -2.1254,18.0645 -3.8718,36.9716 -5.1099,55.7779 1.2381,-18.8063 2.9845,-37.7134 5.1099,-55.7779 z"
         id="path33" /></g></g></g>
</svg>
