<?xml version="1.0" encoding="UTF-8" standalone="no"?>
<svg
   version="1.1"
   id="svg2"
   width="631.23431"
   height="526.18176"
   viewBox="0 0 631.23434 526.18176"
   sodipodi:docname="corgi.svg"
   inkscape:version="1.1 (ce6663b3b7, 2021-05-25)"
   xmlns:inkscape="http://www.inkscape.org/namespaces/inkscape"
   xmlns:sodipodi="http://sodipodi.sourceforge.net/DTD/sodipodi-0.dtd"
   xmlns="http://www.w3.org/2000/svg"
   xmlns:svg="http://www.w3.org/2000/svg"
   xmlns:rdf="http://www.w3.org/1999/02/22-rdf-syntax-ns#"
   xmlns:cc="http://creativecommons.org/ns#"
   xmlns:dc="http://purl.org/dc/elements/1.1/">
  <metadata
     id="metadata8">
    <rdf:RDF>
      <cc:Work
         rdf:about="">
        <dc:format>image/svg+xml</dc:format>
        <dc:type
           rdf:resource="http://purl.org/dc/dcmitype/StillImage" />
      </cc:Work>
    </rdf:RDF>
  </metadata>
  <defs
     id="defs6" />
  <sodipodi:namedview
     pagecolor="#978a75"
     bordercolor="#666666"
     borderopacity="1"
     objecttolerance="10"
     gridtolerance="10"
     guidetolerance="10"
     inkscape:pageopacity="0.41176471"
     inkscape:pageshadow="2"
     inkscape:window-width="1920"
     inkscape:window-height="1016"
     id="namedview4"
     showgrid="false"
     inkscape:zoom="0.8819604"
     inkscape:cx="235.83825"
     inkscape:cy="176.31177"
     inkscape:window-x="0"
     inkscape:window-y="27"
     inkscape:window-maximized="1"
     inkscape:current-layer="g10"
     fit-margin-top="0"
     fit-margin-left="0"
     fit-margin-right="0"
     fit-margin-bottom="0"
     inkscape:pagecheckerboard="false" />
  <g
     inkscape:groupmode="layer"
     inkscape:label="Image"
     id="g10"
     transform="translate(-367.04948,-248.90912)">
    <path
       id="Selection"
       fill="none"
       stroke="#feffff"
       stroke-width="1"
       d="m 427.40706,456.56282 c 0,0 -12.97003,0.9977 -12.97003,0.9977 -7.74212,0.0898 -16.7513,-0.15963 -23.48574,-4.60935 0,0 -13.40902,-13.39904 -13.40902,-13.39904 -3.01304,-3.43207 -8.46045,-10.11663 -7.82193,-14.91554 0.79816,-5.95624 7.63237,-14.05752 11.88255,-18.1381 5.34764,-5.13812 14.67609,-14.55636 18.38751,-20.94161 2.87337,-4.94857 0.62855,-13.14962 0.64851,-18.7866 0,0 2.64389,-18.9562 2.64389,-18.9562 -0.0998,-9.17879 -5.00843,-17.40978 -6.6247,-26.20944 -2.84343,-15.42437 -3.35225,-35.81725 -3.17267,-51.61076 0.0499,-4.27014 0.22947,-4.72907 0.94781,-8.80965 1.47659,-8.4405 10.27626,-11.14425 12.02223,-9.14886 0,0 9.72752,8.26091 9.72752,8.26091 5.69684,5.70682 10.69529,12.55101 15.11508,19.28545 0,0 4.95854,9.35838 4.95854,9.35838 2.9033,4.96852 14.62621,20.17339 19.1757,22.96693 4.80889,2.95318 14.56635,3.9808 14.87563,2.98311 0.61857,-1.37682 6.48502,-14.21715 9.4781,-17.76895 0,0 6.29546,-11.10434 9.03912,-15.15498 2.62394,-6.2356 12.24171,-18.35759 17.00072,-22.66763 0,0 7.38294,-6.26552 7.38294,-6.26552 1.30698,-1.11742 3.63161,0.32924 5.12815,1.15732 7.55255,4.2003 8.12124,16.35222 9.78739,23.78505 0,0 2.20491,14.96542 2.20491,14.96542 1.74596,11.85262 3.91096,23.59549 7.89176,34.9293 0,0 8.6999,19.14576 8.6999,19.14576 0,0 2.64389,10.77511 2.64389,10.77511 1.84574,5.08824 5.11818,10.6055 5.54719,15.96312 0,0 5.68686,9.68762 7.59245,13.95775 0,0 10.13658,24.95235 10.13658,24.95235 9.27857,18.09818 8.89944,26.75818 27.07744,41.42429 9.40827,7.59246 31.81649,15.55406 43.98837,17.54945 0,0 16.95084,1.93553 16.95084,1.93553 0,0 23.95465,7.04373 23.95465,7.04373 11.04448,2.23483 13.39904,1.57636 23.94468,0.97774 0,0 14.96542,0.9079 14.96542,0.9079 0,0 19.9539,0 19.9539,0 0,0 15.96312,0.9977 15.96312,0.9977 0,0 16.96081,-0.51881 16.96081,-0.51881 0,0 5.98617,0 5.98617,0 0,0 12.97004,-0.61857 12.97004,-0.61857 0,0 8.97925,0 8.97925,0 0,0 24.94237,0 24.94237,0 0,0 36.91471,4.43975 36.91471,4.43975 0,0 15.05522,1.23714 15.05522,1.23714 11.3837,1.76592 30.82877,7.22331 41.53404,11.97234 10.19644,4.52953 25.8403,12.54102 31.57704,22.47806 1.76592,3.06293 2.74366,8.42055 3.67152,11.89253 0.82808,3.1128 1.82578,3.49193 2.63391,7.42285 1.99539,1.17728 22.26855,23.18643 26.58857,29.29232 2.79355,3.96085 2.27475,6.26552 5.64695,10.17649 0,0 1.37682,3.74135 1.37682,3.74135 -0.56868,2.18495 -2.00536,11.74287 -1.34688,16.37217 0.86799,6.05601 3.28241,10.69529 2.30467,16.97079 -1.43668,9.26859 -3.8511,9.55792 -4.91864,13.83803 0,0 -0.87797,12.6408 -0.87797,12.6408 -0.99769,3.25248 -3.90098,5.37757 -5.04833,11.27395 -1.27705,6.16575 1.51649,7.13352 0,13.07978 -1.50652,6.16575 -6.1458,15.72367 -6.4052,21.82956 -0.4789,11.31386 8.65001,22.74745 9.30849,29.93085 0.31926,3.462 -3.36223,12.39137 -4.87873,16.00303 -3.88103,9.22867 -4.38986,6.70451 -8.12124,12.93012 -4.09054,6.83421 -6.46506,16.83112 -14.31692,20.29312 -2.57405,1.12739 -19.89403,2.75363 -22.94698,2.34458 0,0 -8.97925,-2.31465 -8.97925,-2.31465 -6.4052,-1.26707 -13.26935,-1.09747 -12.66075,-9.957 1.24712,-18.00839 26.4888,-7.52262 26.62847,-28.32456 0.02,-3.79124 0.36915,-13.77816 -0.6884,-16.87102 -3.33231,-9.75745 -19.38522,-19.23555 -29.24244,-19.04599 1.43668,2.23483 2.9432,4.44972 3.81119,6.98386 1.66615,4.90866 1.32694,16.13273 -1.08748,20.66226 -1.67613,3.12279 -4.93859,4.99846 -7.28318,7.5326 0,0 -8.8296,11.62315 -8.8296,11.62315 0,0 -6.25554,7.11356 -6.25554,7.11356 -5.48733,6.5349 -5.24788,9.01916 -15.27471,8.76974 -4.49961,-0.10975 -24.68297,-3.44205 -28.93316,-4.75901 -9.37833,-2.90329 -8.91939,-9.98692 -1.58633,-15.31461 3.84113,-2.79355 16.85107,-4.12048 21.54023,-3.70145 2.09516,-7.93168 8.26092,-20.53256 7.10359,-28.89324 -0.63852,-4.62931 -5.38755,-5.50728 -9.24863,-6.71449 -2.88334,-0.89793 -3.76131,-1.37682 -6.83421,-1.30698 0,0 -5.56714,-4.47965 -5.56714,-4.47965 -3.93092,-3.35226 -6.99384,-7.6623 -12.39137,-8.49039 0,0 -18.9562,-6.1857 -18.9562,-6.1857 -5.74672,-0.9977 -6.73444,0.69838 -9.97695,0 -3.12279,-0.31927 -5.44742,-2.8135 -9.97695,-3.3323 0,0 -19.9539,1.79585 -19.9539,1.79585 0,0 -25.90016,2.54412 -25.90016,2.54412 0,0 -22.26855,5.3676 -22.26855,5.3676 0,0 -6.98386,4.23022 -6.98386,4.23022 -2.89332,1.01765 -7.71218,-0.67843 -11.56329,0.6485 -3.83114,1.30698 -3.12278,4.30007 -7.21333,4.72908 -3.16269,0.33921 -6.48502,-1.57636 -9.33842,-1.63622 -5.04834,-0.10975 -7.43283,2.84343 -13.5487,2.53414 -10.66536,-0.54873 -17.10049,-4.68916 -30.88863,-4.70912 0,0 -39.9078,0 -39.9078,0 -3.65156,0.01 -9.80734,-0.10974 -12.93013,1.9056 -4.55946,2.95318 -5.08824,7.54257 -7.58248,11.6431 -1.70606,2.80352 -13.77816,18.08821 -15.86335,19.87408 -1.62624,1.3868 -2.64389,1.69608 -4.52953,2.49424 0,0 -2.99309,16.96081 -2.99309,16.96081 0,0 -1.99539,-0.99769 -1.99539,-0.99769 1.71604,16.80118 -16.5318,19.17569 -28.93315,20.40286 0,0 -8.97925,0.76822 -8.97925,0.76822 0,0 -9.97695,0 -9.97695,0 -7.08363,-0.0798 -10.80504,1.74597 -10.97464,-7.20335 0,0 0,-3.99078 0,-3.99078 -6.24557,0 -24.97231,-0.0898 -29.57168,-3.63161 -1.84574,-1.41673 -4.72907,-6.03606 -4.04066,-7.28317 0,0 15.37447,-9.08901 15.37447,-9.08901 6.1059,-2.9831 11.69299,-2.08518 15.39444,-9.09897 5.0184,-9.52799 -0.01,-26.45887 -2.98311,-36.07665 -1.75594,-5.69684 -7.08364,-20.31307 -11.13428,-22.61774 -2.05525,-2.93323 -7.7022,-6.60474 -11.13427,-9.51801 -5.4973,-4.66921 -6.43513,-7.792 -9.4781,-10.41594 -3.4221,-2.95317 -15.99305,-11.74287 -22.70754,-23.08666 -7.7022,-8.26091 -14.70602,-17.4397 -17.0107,-28.81343 -2.05525,-10.09667 -2.35456,-20.65228 -2.87336,-30.92854 0,0 0,-7.98156 0,-7.98156 0,0 -1.33691,-8.97925 -1.33691,-8.97925 0,0 -4.51956,-44.89627 -4.51956,-44.89627 0,0 0,-7.98156 0,-7.98156 0,0 0,-9.97695 0,-9.97695 0,0 3.21258,-25.94007 3.21258,-25.94007 z"
       style="stroke-width:6;stroke-linejoin:round;stroke-miterlimit:4;stroke-dasharray:none;stroke-linecap:round" />
  </g>
</svg>
