<?xml version="1.0" encoding="UTF-8" standalone="no"?>
<svg
   version="1.0"
   width="1244.7677pt"
   height="825.34247pt"
   viewBox="0 0 1244.7677 825.34247"
   preserveAspectRatio="xMidYMid meet"
   id="svg1709"
   sodipodi:docname="eagle.svg"
   inkscape:version="1.1 (ce6663b3b7, 2021-05-25)"
   xmlns:inkscape="http://www.inkscape.org/namespaces/inkscape"
   xmlns:sodipodi="http://sodipodi.sourceforge.net/DTD/sodipodi-0.dtd"
   xmlns="http://www.w3.org/2000/svg"
   xmlns:svg="http://www.w3.org/2000/svg">
  <defs
     id="defs1713" />
  <sodipodi:namedview
     id="namedview1711"
     pagecolor="#81817a"
     bordercolor="#666666"
     borderopacity="1.0"
     inkscape:pageshadow="2"
     inkscape:pageopacity="0"
     inkscape:pagecheckerboard="0"
     inkscape:document-units="pt"
     showgrid="false"
     fit-margin-top="0"
     fit-margin-left="0"
     fit-margin-right="0"
     fit-margin-bottom="0"
     inkscape:zoom="0.36425385"
     inkscape:cx="470.82549"
     inkscape:cy="750.84999"
     inkscape:window-width="1920"
     inkscape:window-height="1016"
     inkscape:window-x="0"
     inkscape:window-y="27"
     inkscape:window-maximized="1"
     inkscape:current-layer="g1707" />
  <metadata
     id="metadata1703">
Created by potrace 1.15, written by Peter Selinger 2001-2017
</metadata>
  <g
     transform="matrix(0.1,0,0,-0.1,-9.2322964,852.45097)"
     fill="#000000"
     stroke="none"
     id="g1707">
    <path
       style="color:#000000;fill:none;stroke:#feffff;stroke-opacity:1;stroke-width:75;stroke-miterlimit:4;stroke-dasharray:none;stroke-linejoin:round;stroke-linecap:round"
       d="m 8521,8514 c -48,-34 -112,-176 -180,-399 -95,-308 -337,-815 -593,-1240 -103,-170 -311,-480 -363,-540 -29,-34 -22,-16 48,125 91,182 138,312 197,544 56,219 73,362 68,576 -4,145 -8,186 -26,241 -34,104 -64,113 -102,32 -20,-43 -40,-118 -96,-368 -68,-303 -191,-678 -376,-1140 -90,-225 -230,-516 -283,-587 -35,-47 -36,-48 -93,-48 l -57,-1 -301,-267 c -166,-147 -329,-293 -364,-324 -34,-32 -82,-70 -106,-87 -109,-71 -262,-221 -312,-303 -31,-52 -98,-202 -109,-243 -3,-11 -9,-37 -14,-58 l -10,-37 -36,47 c -82,110 -142,156 -242,189 l -66,22 3,45 c 5,60 -20,114 -92,199 -97,117 -202,187 -279,188 -61,0 -73,12 -92,92 -24,101 -94,244 -145,295 -62,62 -102,78 -190,78 -68,0 -83,-4 -160,-42 -54,-26 -110,-64 -153,-103 -37,-34 -67,-60 -67,-58 0,1 9,28 21,58 45,119 80,274 86,383 10,184 -18,282 -96,334 -30,21 -45,23 -140,22 -58,-1 -117,-4 -131,-8 -40,-11 -161,-172 -423,-563 -73,-108 -133,-195 -134,-194 -1,1 11,49 28,107 62,214 87,571 53,749 -22,119 -48,180 -113,268 -94,126 -158,172 -241,172 -55,0 -95,-22 -125,-71 -36,-56 -132,-351 -209,-640 -36,-135 -67,-254 -68,-265 -1,-10 -5,109 -9,266 -7,300 -18,395 -65,567 -55,206 -140,355 -259,456 -93,80 -151,109 -207,105 -39,-3 -45,-7 -64,-44 -19,-39 -21,-64 -28,-385 -3,-189 -9,-393 -13,-454 l -7,-110 -42,210 c -77,383 -150,637 -253,885 -94,225 -180,350 -316,456 -115,89 -147,101 -180,64 -37,-41 -37,-96 0,-409 62,-527 95,-825 92,-827 -1,-2 -19,53 -39,121 -54,181 -101,301 -183,472 -148,307 -326,523 -431,523 -31,0 -32,-2 -37,-47 -10,-94 -6,-270 9,-403 20,-179 121,-775 171,-1010 2,-14 -33,43 -80,126 -152,272 -281,442 -358,474 -42,18 -51,2 -45,-80 3,-36 10,-121 16,-190 52,-653 176,-1181 374,-1595 174,-363 398,-637 666,-814 47,-31 105,-65 129,-76 38,-17 47,-28 76,-90 60,-131 161,-241 310,-337 48,-31 62,-47 77,-85 9,-25 27,-57 40,-71 28,-30 126,-78 177,-87 30,-5 39,-13 55,-47 33,-70 144,-126 309,-154 113,-20 136,-31 377,-192 341,-227 749,-536 731,-554 -12,-12 -185,-57 -341,-88 -108,-22 -207,-34 -325,-41 -93,-5 -208,-16 -255,-24 -168,-28 -342,-100 -460,-189 -35,-27 -87,-56 -115,-66 -188,-65 -377,-206 -439,-328 -48,-95 -28,-243 42,-311 l 37,-36 3,38 c 4,46 26,58 104,51 336,-27 416,-37 496,-61 48,-14 105,-30 127,-36 22,-5 47,-15 55,-22 35,-29 92,-50 239,-86 177,-45 363,-71 661,-94 113,-8 268,-20 345,-26 77,-6 179,-17 227,-25 120,-20 458,-137 1112,-384 377,-142 539,-189 840,-245 365,-67 692,-90 1176,-82 439,7 635,24 1189,103 193,27 277,34 398,34 84,0 153,3 153,6 0,3 -11,15 -25,26 -14,11 -25,24 -25,29 0,24 50,0 209,-102 l 174,-110 86,-9 c 100,-11 422,-12 467,-2 21,5 97,65 229,182 l 197,175 66,3 c 44,2 93,-5 142,-18 41,-11 120,-29 175,-40 55,-11 147,-33 205,-47 91,-24 127,-28 270,-29 146,-1 173,-4 230,-25 57,-21 84,-24 225,-25 124,-1 170,-5 205,-18 73,-28 176,-46 258,-46 51,0 99,-7 142,-21 36,-12 94,-22 130,-23 55,-1 70,3 98,24 29,22 47,26 137,31 110,6 140,17 172,65 14,22 15,32 5,67 -10,36 -9,43 5,52 56,35 60,58 17,105 l -23,25 34,28 c 19,15 35,36 35,47 0,52 -100,117 -270,178 -47,17 -93,33 -103,37 -16,7 -14,12 21,49 67,70 77,105 41,150 -29,36 -100,71 -190,92 l -76,17 30,43 c 29,42 30,44 13,69 -33,51 -88,74 -234,100 -46,8 -88,17 -93,20 -5,3 -1,27 9,53 22,58 10,112 -32,148 -33,29 -60,30 -168,4 -131,-31 -509,-79 -720,-91 -210,-13 -928,-6 -1128,10 -78,7 -139,18 -190,36 -41,14 -122,39 -180,56 -246,71 -240,69 -240,89 0,11 16,28 38,41 60,37 130,108 142,143 14,43 2,73 -44,113 l -35,32 24,43 c 13,24 29,64 35,90 8,30 19,49 30,53 22,7 41,36 65,98 14,36 27,53 54,67 20,10 48,31 63,47 28,30 98,167 98,193 0,8 13,22 29,31 16,9 43,43 62,79 25,44 43,65 66,75 38,16 67,59 88,130 17,60 43,91 85,100 48,11 70,55 70,141 v 71 l 30,7 c 25,5 35,15 51,55 16,38 32,56 68,79 58,35 86,87 78,144 -4,29 -1,41 9,45 34,13 78,144 65,191 -5,15 -4,38 1,52 6,14 14,53 18,87 6,50 14,69 38,93 56,55 90,187 63,238 -15,28 -14,32 8,32 32,0 68,55 96,145 27,89 26,103 -12,146 -12,14 -8,19 29,44 81,53 128,126 114,178 -3,12 -26,36 -50,52 -25,17 -46,32 -46,35 0,3 20,36 45,75 59,91 58,108 -5,147 -61,38 -103,108 -64,108 32,0 170,52 202,77 72,54 61,107 -33,170 l -55,36 40,43 c 107,116 126,190 65,251 -39,39 -41,43 -20,43 21,0 93,94 126,165 56,117 31,198 -83,268 -37,23 -35,33 5,46 77,26 123,65 156,136 85,182 75,265 -30,265 -49,0 -158,-34 -242,-77 -27,-13 -137,-54 -245,-90 -212,-71 -297,-85 -297,-49 0,14 21,25 102,51 254,84 449,204 649,402 54,54 116,111 136,127 39,29 85,93 74,103 -10,11 -235,-77 -441,-173 -110,-51 -382,-178 -605,-283 -222,-105 -410,-191 -417,-191 -20,0 -16,14 25,73 59,86 86,113 139,140 71,37 215,135 308,211 44,36 191,173 326,303 228,221 249,244 292,323 58,108 75,163 57,185 -22,26 -40,17 -119,-59 -73,-70 -366,-281 -896,-642 -409,-279 -820,-538 -837,-528 -21,13 1,40 100,120 143,118 482,453 645,638 73,83 176,200 231,260 109,124 147,190 173,308 15,71 15,79 -1,112 -9,20 -21,36 -26,36 -20,0 -96,-79 -168,-175 -92,-122 -416,-448 -607,-611 -143,-122 -383,-314 -580,-464 l -110,-83 120,124 c 185,191 301,348 488,659 111,186 234,423 274,529 30,80 73,255 73,297 0,48 -22,61 -62,36 -70,-44 -193,-195 -234,-289 -79,-179 -617,-889 -908,-1198 l -47,-50 41,68 c 184,309 330,746 394,1177 12,81 12,109 1,186 -14,93 -38,159 -60,168 -7,2 -22,-2 -34,-10 z"
       id="path1705" />
  </g>
</svg>
