<?xml version="1.0" encoding="UTF-8" standalone="no"?>
<svg
   width="62.875"
   height="63.875"
   version="1.1"
   id="svg4"
   sodipodi:docname="favicon.svg"
   inkscape:version="1.1.2 (76b9e6a115, 2022-02-25)"
   xmlns:inkscape="http://www.inkscape.org/namespaces/inkscape"
   xmlns:sodipodi="http://sodipodi.sourceforge.net/DTD/sodipodi-0.dtd"
   xmlns="http://www.w3.org/2000/svg"
   xmlns:svg="http://www.w3.org/2000/svg">
  <defs
     id="defs8" />
  <sodipodi:namedview
     id="namedview6"
     pagecolor="#505050"
     bordercolor="#eeeeee"
     borderopacity="1"
     inkscape:pageshadow="0"
     inkscape:pageopacity="0"
     inkscape:pagecheckerboard="0"
     showgrid="false"
     width="63px"
     inkscape:zoom="12.242661"
     inkscape:cx="37.124281"
     inkscape:cy="31.9375"
     inkscape:window-width="1920"
     inkscape:window-height="1043"
     inkscape:window-x="0"
     inkscape:window-y="0"
     inkscape:window-maximized="1"
     inkscape:current-layer="svg4" />
  <path
     d="m 12.988,62.909 -0.267,-0.267 v -5.533 -5.533 h 0.8 0.8 v 5.8 5.8 h -0.533 -0.533 z m 0.831,-8.216 -0.138,-2.917 -10e-4,5.6 -10e-4,5.6 0.14,-2.683 0.14,-2.683 -0.138,-2.917 z m 12.769,8.216 -0.267,-0.267 v -5.533 -5.533 h 0.8 0.8 v 5.8 5.8 h -0.533 -0.533 z m 0.831,-8.216 -0.138,-2.917 -10e-4,5.6 -0.001,5.6 0.14,-2.683 0.14,-2.683 -0.138,-2.917 z m -10.919,7.648 -0.269,-0.435 0.382,-0.382 0.382,-0.382 3.358,0.117 3.358,0.117 0.134,0.7 0.134,0.7 h -3.604 -3.606 z m 6.622,-0.365 v -0.4 h -3 -3 v 0.4 0.4 h 3 3 z m 13.778,0.365 -0.269,-0.435 0.382,-0.382 0.382,-0.382 3.358,0.117 3.358,0.117 0.134,0.7 0.134,0.7 h -3.606 -3.606 z m 6.622,-0.365 v -0.4 h -3 -3 v 0.4 0.4 h 3 3 z m -10.343,-4.3 -1.951,-3.9 -0.28,-0.9 -0.28,-0.9 h 0.835 0.835 l 1.992,4.256 1.992,4.256 v 0.544 0.544 H 35.726 35.13 Z m 2.27,2.498 -0.456,-1.002 -0.167,0.167 -0.167,0.167 0.446,0.834 0.446,0.834 h 0.177 0.177 z m -0.726,-1.598 v -0.2 h -0.2 -0.2 v 0.2 0.2 h 0.2 0.2 z m -1.754,-3.659 -1.406,-2.741 -0.02,0.292 -0.02,0.292 1.28,2.595 1.28,2.595 0.146,-0.146 0.146,-0.146 z m 13.811,2.759 -1.951,-3.9 -0.28,-0.9 -0.28,-0.9 h 0.835 0.835 l 1.992,4.256 1.992,4.256 v 0.544 0.544 h -0.596 -0.596 z m 2.27,2.498 -0.456,-1.002 -0.167,0.167 -0.167,0.167 0.446,0.834 0.446,0.834 h 0.177 0.177 z m -0.726,-1.598 v -0.2 h -0.2 -0.2 v 0.2 0.2 h 0.2 0.2 z m -1.754,-3.659 -1.406,-2.741 -0.02,0.292 -0.02,0.292 1.28,2.595 1.28,2.595 0.146,-0.146 0.146,-0.146 z M 12.722,42.176 v -5.8 h 0.8 0.8 v 5.8 5.8 h -0.8 -0.8 z m 1.097,-2.682 -0.138,-2.918 -10e-4,5.6 -10e-4,5.6 0.14,-2.682 0.14,-2.683 -0.138,-2.917 z m 26.503,4.095 -2.6,-1.066 -0.119,-0.803 -0.119,-0.803 2.728,-1.07 2.728,-1.07 h 0.49 0.49 v 0.622 0.622 l -1.794,0.794 -1.794,0.794 -0.906,-0.116 -0.906,-0.116 -0.078,0.4 -0.078,0.4 1.078,-0.092 1.078,-0.092 1.7,0.646 1.7,0.646 v 0.503 0.503 l -0.5,0.182 -0.5,0.182 z m 2.8,0.178 v -0.21 l -0.9,-0.337 -0.9,-0.337 -1,-0.253 -1,-0.253 1.6,0.769 1.6,0.769 0.3,0.03 0.3,0.03 v -0.21 z m -1,-3.607 1.2,-0.518 -0.6,-0.003 -0.6,-0.003 -1.6,0.769 -1.6,0.769 1,-0.249 1,-0.249 1.2,-0.518 z m -29.311,-13.079 0.111,-5.695 0.7,-0.134 0.7,-0.134 v 5.829 5.829 H 13.511 12.7 Z m 1.008,-2.787 -0.138,-2.918 -10e-4,5.6 -10e-4,5.6 0.14,-2.682 0.14,-2.682 z m 12.592,2.787 0.111,-5.695 0.7,-0.134 0.7,-0.134 v 5.829 5.829 H 27.111 26.3 Z m 1.008,-2.787 -0.138,-2.918 -10e-4,5.6 -0.001,5.6 0.14,-2.682 0.14,-2.682 z m 3.548,6.555 -0.202,-0.327 2.157,-4.473 2.157,-4.473 h 0.622 0.622 v 0.558 0.558 l -1.981,4.242 -1.981,4.242 h -0.596 -0.596 z m 4.115,-7.073 v -0.4 l -1.76,3.4 -1.76,3.4 v 0.4 0.4 l 1.76,-3.4 1.76,-3.4 z m 0.593,-1.221 0.238,-0.621 -0.395,0.244 -0.395,0.244 v 0.376 0.376 h 0.157 0.157 z m 8.892,8.294 -0.202,-0.327 2.157,-4.473 2.157,-4.473 h 0.622 0.622 v 0.558 0.558 l -1.981,4.242 -1.981,4.242 h -0.596 -0.596 z m 4.115,-7.073 v -0.4 l -1.76,3.4 -1.76,3.4 v 0.4 0.4 l 1.76,-3.4 1.76,-3.4 z m 0.593,-1.221 0.238,-0.621 -0.395,0.244 -0.395,0.244 v 0.376 0.376 h 0.157 0.157 z m -36.464,-10.674 0.111,-5.695 0.7,-0.134 0.7,-0.134 v 5.829 5.829 H 13.511 12.7 Z m 1.008,-2.787 -0.138,-2.918 -10e-4,5.6 -10e-4,5.6 0.14,-2.683 0.14,-2.683 z m 12.592,2.787 0.111,-5.695 0.7,-0.134 0.7,-0.134 v 5.829 5.829 H 27.111 26.3 Z m 1.008,-2.787 -0.138,-2.918 -10e-4,5.6 -0.001,5.6 0.14,-2.683 0.14,-2.683 -0.138,-2.918 z m 9.481,7.648 -0.269,-0.435 0.37,-0.37 0.37,-0.37 c 11.313,0.07 0.627,0.139 11.94,0.209 l 0.135,0.7 0.135,0.7 H 37.169 Z m 8.948,-0.265 -8.527,0.116 h 11.6 C 39.83,16.406 54.798,16.354 45.848,16.476 Z M 16.505,1.549 16.241,1.122 l 0.21,-0.21 0.21,-0.21 3.53,-0.001 3.531,-0.001 0.129,0.638 0.129,0.638 h -3.605 -3.606 z m 5.327,-0.264 -1.489,-0.156 -1.711,0.154 -1.711,0.154 3.2,0.003 3.2,0.003 -1.489,-0.156 z"
     fill="#feffff"
     stroke="#000000"
     stroke-width="1.4"
     stroke-linejoin="round"
     id="path2" />
</svg>
