<?xml version="1.0" encoding="UTF-8" standalone="no"?>
<svg
   version="1.1"
   id="svg2"
   width="38.621964"
   height="63.875118"
   viewBox="0 0 38.621963 63.875118"
   sodipodi:docname="k.svg"
   inkscape:version="1.1.2 (76b9e6a115, 2022-02-25)"
   xmlns:inkscape="http://www.inkscape.org/namespaces/inkscape"
   xmlns:sodipodi="http://sodipodi.sourceforge.net/DTD/sodipodi-0.dtd"
   xmlns="http://www.w3.org/2000/svg"
   xmlns:svg="http://www.w3.org/2000/svg"
   xmlns:rdf="http://www.w3.org/1999/02/22-rdf-syntax-ns#"
   xmlns:cc="http://creativecommons.org/ns#"
   xmlns:dc="http://purl.org/dc/elements/1.1/">
  <metadata
     id="metadata8">
    <rdf:RDF>
      <cc:Work
         rdf:about="">
        <dc:format>image/svg+xml</dc:format>
        <dc:type
           rdf:resource="http://purl.org/dc/dcmitype/StillImage" />
      </cc:Work>
    </rdf:RDF>
  </metadata>
  <defs
     id="defs6">
    <filter
       style="color-interpolation-filters:sRGB"
       inkscape:label="Invert"
       id="filter866">
      <feColorMatrix
         values="-1 0 0 0 1 0 -1 0 0 1 0 0 -1 0 1 0.21 0.72 0.07 1 0 "
         result="color2"
         id="feColorMatrix864" />
    </filter>
  </defs>
  <sodipodi:namedview
     pagecolor="#000000"
     bordercolor="#666666"
     borderopacity="1"
     objecttolerance="10"
     gridtolerance="10"
     guidetolerance="10"
     inkscape:pageopacity="0.02745098"
     inkscape:pageshadow="2"
     inkscape:window-width="1920"
     inkscape:window-height="1043"
     id="namedview4"
     showgrid="false"
     inkscape:zoom="5.3164163"
     inkscape:cx="4.4202709"
     inkscape:cy="52.667057"
     inkscape:window-x="0"
     inkscape:window-y="0"
     inkscape:window-maximized="1"
     inkscape:current-layer="g10"
     inkscape:document-rotation="0"
     fit-margin-top="0"
     fit-margin-left="0"
     fit-margin-right="0"
     fit-margin-bottom="0"
     inkscape:pagecheckerboard="true" />
  <g
     inkscape:groupmode="layer"
     inkscape:label="Image"
     id="g10"
     transform="translate(-54.959699,-8.96244)">
    <path
       style="fill:#feffff;fill-opacity:1;stroke:#feffff;stroke-width:1.4;stroke-linejoin:round;stroke-miterlimit:4;stroke-dasharray:none;stroke-opacity:1"
       d="m 55.94833,71.870892 -0.266668,-0.266664 v -5.533336 -5.533328 h 0.8 0.8 v 5.799996 5.8 H 56.74833 56.214994 Z m 0.830688,-8.215828 -0.1384,-2.9175 -0.0012,5.599996 -0.0012,5.6 0.139536,-2.6825 0.139532,-2.6825 -0.1384,-2.917496 z m 12.769311,8.215828 -0.266668,-0.266664 v -5.533336 -5.533328 h 0.8 0.8 v 5.799996 5.8 h -0.533332 -0.533336 z m 0.830688,-8.215828 -0.1384,-2.9175 -0.0012,5.599996 -0.0012,5.6 0.139536,-2.6825 0.139532,-2.6825 -0.1384,-2.917496 z m -10.918895,7.647644 -0.268756,-0.434852 0.38234,-0.38234 0.38234,-0.38234 3.358384,0.117192 3.358383,0.117192 0.133752,0.7 0.133756,0.7 h -3.605723 -3.605724 z m 6.621539,-0.365148 v -0.4 h -2.999999 -3 v 0.4 0.4 h 3 2.999999 z m 13.778462,0.365148 -0.268754,-0.434852 0.382339,-0.38234 0.382339,-0.38234 3.358384,0.117192 3.358384,0.117192 0.133752,0.7 0.133756,0.7 H 83.7346 80.128877 Z m 6.62154,-0.365148 v -0.4 h -3 -3 v 0.4 0.4 h 3 3 z m -10.343348,-4.3 -1.950642,-3.899996 -0.27996,-0.9 -0.279964,-0.9 h 0.834696 0.83469 l 1.992265,4.255724 1.992263,4.255728 v 0.544272 0.544272 H 78.68531 78.088957 Z m 2.269797,2.498308 -0.456401,-1.001688 -0.167432,0.167432 -0.167432,0.167432 0.446481,0.834256 0.446482,0.83426 h 0.177351 0.177351 z M 77.681663,67.53756 v -0.2 h -0.2 -0.2 v 0.2 0.2 h 0.2 0.2 z m -1.754316,-3.659344 -1.406334,-2.740652 -0.01968,0.292428 -0.01968,0.292424 1.279514,2.59472 1.279517,2.594724 0.146495,-0.146496 0.146495,-0.146492 z m 13.810968,2.759344 -1.95064,-3.899996 -0.279964,-0.9 -0.27996,-0.9 h 0.834692 0.834692 l 1.992264,4.255724 1.992264,4.255728 v 0.544272 0.544272 h -0.596352 -0.596356 z m 2.269796,2.498308 -0.4564,-1.001688 -0.167432,0.167432 -0.167432,0.167432 0.44648,0.834256 0.446484,0.83426 h 0.177348 0.177352 z M 91.281663,67.53756 v -0.2 h -0.2 -0.2 v 0.2 0.2 h 0.2 0.2 z m -1.754316,-3.659344 -1.406336,-2.740652 -0.01968,0.292428 -0.01968,0.292424 1.279516,2.59472 1.279516,2.594724 0.146496,-0.146496 0.146496,-0.146492 -1.40634,-2.740656 z M 55.681662,51.137564 v -5.8 h 0.8 0.8 v 5.8 5.8 h -0.8 -0.8 z m 1.097356,-2.6825 -0.1384,-2.9175 -0.0012,5.6 -0.0012,5.6 0.139536,-2.6825 0.139532,-2.6825 -0.1384,-2.9175 z m 26.502645,4.094736 -2.6,-1.06578 -0.118583,-0.802744 -0.118584,-0.80274 2.728488,-1.070488 2.728487,-1.070484 h 0.490096 0.490096 v 0.622492 0.622492 l -1.794028,0.793584 -1.794027,0.793584 -0.905972,-0.116076 -0.905973,-0.116076 -0.07828,0.4 -0.07828,0.4 1.078279,-0.09177 1.078279,-0.09177 1.7,0.646116 1.7,0.646116 v 0.50286 0.50286 l -0.5,0.181804 -0.5,0.181804 z m 2.8,0.177864 v -0.2099 l -0.9,-0.336688 -0.9,-0.336688 -1,-0.252516 -1,-0.25252 1.6,0.76944 1.6,0.76944 0.3,0.02968 0.3,0.02968 v -0.2099 z m -1,-3.60692 1.2,-0.51792 -0.6,-0.0028 -0.6,-0.0028 -1.6,0.76944 -1.6,0.76944 1,-0.248556 1,-0.24856 1.2,-0.517916 z M 55.770678,36.04256 l 0.110984,-5.695004 0.7,-0.134328 0.7,-0.134324 v 5.829328 5.829332 h -0.810984 -0.81098 z m 1.00834,-2.787496 -0.1384,-2.9175 -0.0012,5.6 -0.0012,5.6 0.139536,-2.6825 0.139532,-2.6825 z m 12.591659,2.787496 0.110984,-5.695004 0.7,-0.134328 0.7,-0.134324 v 5.829328 5.829332 h -0.810984 -0.81098 z m 1.00834,-2.787496 -0.1384,-2.9175 -0.0012,5.6 -0.0012,5.6 0.139536,-2.6825 0.139532,-2.6825 z m 3.547604,6.555236 -0.202264,-0.32726 2.157102,-4.47274 2.157101,-4.472736 h 0.621552 0.621551 v 0.558468 0.558468 l -1.980606,4.241532 -1.980606,4.241532 h -0.595786 -0.595788 z m 4.114864,-7.072736 v -0.4 l -1.759822,3.4 -1.759818,3.4 v 0.4 0.4 l 1.759818,-3.4 1.759822,-3.4 z m 0.592801,-1.220776 0.238214,-0.620776 -0.395418,0.244384 -0.395419,0.24438 v 0.376392 0.376396 h 0.157205 0.157204 z m 8.892333,8.293512 -0.20226,-0.32726 2.1571,-4.47274 2.1571,-4.472736 h 0.621552 0.621552 v 0.558468 0.558468 l -1.980608,4.241532 -1.980604,4.241532 h -0.595788 -0.595788 z m 4.114864,-7.072736 v -0.4 l -1.75982,3.4 -1.75982,3.4 v 0.4 0.4 l 1.75982,-3.4 1.75982,-3.4 z m 0.592804,-1.220776 0.238212,-0.620776 -0.395416,0.244384 -0.39542,0.24438 v 0.376392 0.376396 h 0.157204 0.157204 z m -36.463609,-10.674224 0.110984,-5.695004 0.7,-0.134328 0.7,-0.134324 v 5.829328 5.829332 h -0.810984 -0.81098 z m 1.00834,-2.787496 -0.1384,-2.9175 -0.0012,5.6 -0.0012,5.6 0.139536,-2.6825 0.139532,-2.6825 z m 12.591659,2.787496 0.110984,-5.695004 0.7,-0.134328 0.7,-0.134324 v 5.829328 5.829332 h -0.810984 -0.81098 z m 1.00834,-2.787496 -0.1384,-2.9175 -0.0012,5.6 -0.0012,5.6 0.139536,-2.6825 0.139532,-2.6825 -0.1384,-2.9175 z m 9.481106,7.647648 -0.268754,-0.434856 0.369547,-0.369548 0.369548,-0.369544 c 11.313465,0.0696 0.626931,0.1392 11.940396,0.2088 l 0.13473,0.7 0.13473,0.7 c -11.470481,0 -0.940962,0 -12.411443,0 z m 8.948468,-0.264792 -8.526928,0.116424 c 11.199999,1.2e-4 0.399998,2.4e-4 11.599997,3.6e-4 -9.090706,-0.186869 5.876995,-0.238985 -3.073069,-0.116784 z m -29.343377,-14.926968 -0.26366,-0.426612 0.209752,-0.209752 0.209752,-0.209752 3.5303,-0.0012 3.530303,-0.0012 0.129328,0.63758 0.129332,0.637548 h -3.605723 -3.605724 z m 5.327019,-0.264148 -1.489423,-0.156272 -1.710576,0.153632 -1.710572,0.153632 3.2,0.0028 3.199999,0.0028 -1.489428,-0.156272 z"
       id="path941"
       sodipodi:nodetypes="cccccccccccccccccccccccccccccccccccccccccccccccccccccccccccccccccccccccccccccccccccccccccccccccccccccccccccccccccccccccccccccccccccccccccccccccccccccccccccccccccccccccccccccccccccccccccccccccccccccccccccccccccccccccccccccccccccccccccccccccccccccccccccccccccccccccccccccccccccccccccccccccccccccccccccccccccccccccccccccccccccccccccccccccccccccccccccccccccccccccccccccccccccccccccccccc" />
  </g>
</svg>
