<?xml version="1.0" encoding="UTF-8" standalone="no"?>
<svg
   xmlns:dc="http://purl.org/dc/elements/1.1/"
   xmlns:cc="http://creativecommons.org/ns#"
   xmlns:rdf="http://www.w3.org/1999/02/22-rdf-syntax-ns#"
   xmlns:svg="http://www.w3.org/2000/svg"
   xmlns="http://www.w3.org/2000/svg"
   xmlns:sodipodi="http://sodipodi.sourceforge.net/DTD/sodipodi-0.dtd"
   xmlns:inkscape="http://www.inkscape.org/namespaces/inkscape"
   width="210mm"
   height="297mm"
   viewBox="0 0 210 297"
   version="1.1"
   id="svg8"
   inkscape:version="1.0.2 (394de47547, 2021-03-26)"
   sodipodi:docname="keycap_circuit_board.svg.svg">
  <defs
     id="defs2" />
  <sodipodi:namedview
     id="base"
     pagecolor="#ffffff"
     bordercolor="#666666"
     borderopacity="1.0"
     inkscape:pageopacity="0.0"
     inkscape:pageshadow="2"
     inkscape:zoom="1.1873748"
     inkscape:cx="523.92781"
     inkscape:cy="567.04322"
     inkscape:document-units="mm"
     inkscape:current-layer="layer1"
     inkscape:document-rotation="0"
     showgrid="false"
     inkscape:window-width="1920"
     inkscape:window-height="1016"
     inkscape:window-x="0"
     inkscape:window-y="27"
     inkscape:window-maximized="1" />
  <metadata
     id="metadata5">
    <rdf:RDF>
      <cc:Work
         rdf:about="">
        <dc:format>image/svg+xml</dc:format>
        <dc:type
           rdf:resource="http://purl.org/dc/dcmitype/StillImage" />
        <dc:title></dc:title>
      </cc:Work>
    </rdf:RDF>
  </metadata>
  <g
     inkscape:label="Layer 1"
     inkscape:groupmode="layer"
     id="layer1">
    <path
       style="fill:#000000;stroke-width:0.264583"
       d="m 102.82525,202.54606 c -2.18473,-0.49786 -3.986278,-1.35535 -9.303131,-4.42805 -2.396643,-1.38506 -4.893318,-2.81347 -5.548161,-3.17423 -0.654844,-0.36077 -3.155157,-1.79228 -5.556251,-3.18115 -5.405009,-3.12641 -22.832997,-13.05767 -30.294792,-17.26333 -6.449294,-3.635 -8.954294,-5.29262 -10.44944,-6.91466 -1.237984,-1.34306 -1.592575,-2.12698 -1.580464,-3.49405 0.01712,-1.93226 0.819206,-3.56081 6.279055,-12.74892 0.302655,-0.50932 1.240592,-2.11667 2.084305,-3.57188 5.599274,-9.65744 17.705834,-29.2204 18.559226,-29.9898 0.921859,-0.83113 5.946383,-4.27374 6.237571,-4.27374 0.188735,0 26.942652,-15.311488 30.405692,-17.40143 2.34968,-1.418028 6.11234,-3.088136 8.19556,-3.637713 1.41369,-0.372945 2.36515,-0.438931 4.54724,-0.315361 2.40632,0.136269 3.01442,0.274058 4.75151,1.076645 1.09563,0.506207 3.63327,2.042593 5.63923,3.414193 2.00595,1.371599 6.74281,4.309476 10.52635,6.528626 3.78354,2.21914 7.53587,4.43039 8.3385,4.91389 0.80263,0.4835 2.54537,1.35701 3.87275,1.94114 5.8667,2.58169 8.85382,4.42052 10.00377,6.15821 0.82122,1.24096 1.48636,3.29411 3.46091,10.68326 0.81662,3.05594 3.03016,11.27125 4.91897,18.25625 5.2747,19.50631 5.3302,19.79642 4.12829,21.57993 -0.99258,1.47289 -3.46697,3.04689 -16.73152,10.64324 -17.96048,10.2856 -27.60921,15.85026 -30.82396,17.77694 -5.88439,3.52666 -10.53449,6.04151 -12.56771,6.79682 -2.61651,0.97199 -6.42313,1.2337 -9.0935,0.62517 z m 7.506,-0.79386 c 0.95646,-0.31522 0.57656,-0.35147 -3.9467,-0.37654 -2.75277,-0.0153 -4.94836,0.0289 -4.87909,0.0982 0.65189,0.65188 7.07749,0.85453 8.82579,0.27833 z m 5.79798,-2.61582 c 1.46778,-0.77978 3.79978,-2.08751 5.18223,-2.90607 l 2.51354,-1.48829 -17.30816,-0.004 c -9.519487,-0.002 -17.257928,0.0459 -17.196532,0.10729 0.0614,0.0614 2.254131,1.36884 4.872744,2.90544 l 4.761114,2.79382 7.253184,0.005 7.25319,0.005 2.66869,-1.41779 z m 15.51221,-8.96711 7.00023,-4.03489 0.0687,-12.46341 0.0687,-12.4634 1.86067,-0.15599 c 1.26703,-0.10622 2.31984,-0.38849 3.29984,-0.88471 1.17668,-0.5958 1.57264,-0.68177 2.17104,-0.47132 1.03277,0.36321 1.53185,1.47791 1.07828,2.40835 -0.5688,1.16682 -1.57796,1.31578 -3.19301,0.47129 -0.90336,-0.47235 -1.95109,-0.76714 -3.03607,-0.85423 l -1.65671,-0.13299 v 12.1009 12.1009 l 0.99218,-0.58588 c 0.54571,-0.32223 1.91492,-1.11832 3.04271,-1.76908 l 2.05052,-1.1832 v -7.24475 -7.24474 l 3.24115,-0.0743 3.24114,-0.0743 v -6.2177 -6.21771 l -3.20536,-0.074 -3.20536,-0.074 -0.18317,-2.0213 c -0.12856,-1.41876 -0.37584,-2.35008 -0.82953,-3.12424 -0.79801,-1.36171 -0.81728,-2.16334 -0.0711,-2.95763 0.92679,-0.98653 2.38789,-0.67479 2.87789,0.61402 0.20069,0.52785 0.0889,1.03858 -0.54183,2.47566 -0.54145,1.23363 -0.79468,2.23912 -0.79468,3.15532 v 1.34472 h 3.30729 3.30729 v 6.87917 6.87916 h -3.30729 -3.30729 v 6.74688 c 0,3.71078 0.072,6.74687 0.16001,6.74687 0.088,0 2.79443,-1.51804 6.0143,-3.37344 5.79071,-3.33679 5.84228,-3.37431 4.74829,-3.45413 -0.81148,-0.0592 -1.55702,0.13682 -2.79965,0.73613 -1.38195,0.6665 -1.81972,0.7689 -2.37867,0.55638 -1.28714,-0.48937 -1.60797,-1.85113 -0.67108,-2.84841 0.74743,-0.79559 1.3851,-0.77234 2.9987,0.10934 1.12401,0.61416 1.6376,0.72257 3.44699,0.7276 2.11879,0.006 2.13583,2.6e-4 4.8948,-1.58159 l 2.7686,-1.5875 0.13229,-13.15719 0.13229,-13.15719 0.70136,-0.70118 0.70136,-0.70117 -0.51281,-1.88435 c -1.30697,-4.8025 -1.18895,-4.55358 -2.54365,-5.36499 l -1.25667,-0.75268 h -16.80104 -16.80105 l -1.38026,0.7276 c -1.6549,0.87238 -1.91515,0.88894 -2.81739,0.17924 -0.82229,-0.64682 -0.89675,-1.52775 -0.20167,-2.38613 0.64484,-0.79636 1.93223,-0.77239 3.34463,0.0623 l 1.05469,0.62327 h 16.40417 c 15.13659,0 16.49911,-0.0366 17.63285,-0.47418 l 1.22868,-0.47417 -0.62571,-2.27424 c -0.34414,-1.25083 -0.69858,-2.34714 -0.78765,-2.43624 -0.0891,-0.0891 -8.87339,-0.16201 -19.52069,-0.16201 H 123.825 l -1.19062,0.58713 c -0.74912,0.36941 -2.6303,2.04548 -5.073,4.51988 -3.51415,3.55975 -3.92258,4.07108 -4.30636,5.39125 -0.37449,1.28818 -0.41547,3.64928 -0.35097,20.21867 l 0.073,18.76016 0.74816,1.45521 c 0.63099,1.22729 0.70425,1.5699 0.46777,2.18755 -0.58268,1.52187 -2.7607,1.42816 -3.31309,-0.14254 -0.21232,-0.60374 -0.12075,-0.99739 0.52301,-2.24834 l 0.7804,-1.51647 0.13229,-19.84375 c 0.11926,-17.88844 0.17584,-19.92196 0.57417,-20.6375 0.24304,-0.43656 2.2671,-2.59747 4.49792,-4.80202 3.21238,-3.17455 4.27618,-4.06854 5.11437,-4.298 0.71904,-0.19685 6.92059,-0.29021 19.34381,-0.29121 10.057,-7.9e-4 18.82462,-0.0754 19.48359,-0.1657 l 1.19813,-0.16422 -0.48401,-1.75401 c -0.2662,-0.9647 -0.61474,-2.26002 -0.77452,-2.87848 l -0.29052,-1.12448 h -7.79046 -7.79047 l -0.0707,-6.66614 -0.0707,-6.66613 -2.77812,-1.66757 c -1.52797,-0.91716 -2.86743,-1.66787 -2.97657,-1.66824 -0.10914,-3.7e-4 -0.19843,3.7498 -0.19843,8.3337 v 8.33438 h -9.44147 c -9.1377,0 -9.48033,0.0185 -10.64948,0.57365 -1.68127,0.7984 -11.59842,10.72685 -12.41238,12.42654 -0.58722,1.22621 -0.58723,1.22652 -0.51227,15.47813 l 0.075,14.25189 0.76688,1.66065 c 0.64749,1.40212 0.72008,1.76337 0.46627,2.32042 -0.66724,1.46444 -2.793,1.31156 -3.3387,-0.24012 -0.22518,-0.64029 -0.14528,-0.96352 0.52301,-2.11605 l 0.78879,-1.36032 0.13229,-15.23658 0.13229,-15.23658 0.7288,-1.05125 c 1.04176,-1.50264 10.74826,-11.05003 11.75963,-11.56685 0.73816,-0.3772 2.08698,-0.4327 10.51718,-0.4327 h 9.67044 v -8.41583 -8.41583 l -2.68076,-1.57219 c -1.47442,-0.8647 -2.78411,-1.61188 -2.91042,-1.66038 -0.12631,-0.0485 -0.22966,3.07036 -0.22966,6.93081 v 7.01901 l -7.87135,0.0806 c -7.06531,0.0724 -7.96331,0.13078 -8.76934,0.57016 -0.49389,0.26923 -3.37427,2.97064 -6.40084,6.00314 -3.02657,3.0325 -5.83124,5.7288 -6.2326,5.99178 -0.56991,0.37342 -1.48596,0.51208 -4.18249,0.63311 -3.110785,0.13963 -3.604601,0.23093 -4.985901,0.92181 -1.434727,0.7176 -1.578872,0.74116 -2.245463,0.36701 -1.004408,-0.56376 -1.32597,-1.61136 -0.759825,-2.47541 0.67999,-1.03779 1.485649,-1.09837 3.252756,-0.24457 1.367994,0.66097 1.845786,0.74903 4.063804,0.74903 1.382448,0 2.860009,-0.0963 3.283469,-0.2141 0.49123,-0.1366 2.93346,-2.34957 6.74687,-6.11352 3.28733,-3.24469 6.27461,-6.06537 6.63841,-6.26819 0.50901,-0.28378 2.52134,-0.39926 8.73125,-0.50106 l 8.06979,-0.13229 0.0705,-6.90177 0.0704,-6.90176 -2.18712,-1.35664 c -1.20291,-0.74615 -2.57407,-1.610876 -3.04702,-1.921613 l -0.85989,-0.564976 v 5.846819 5.84681 h -4.96488 -4.96488 l -1.67351,0.81646 c -1.89424,0.92414 -2.69063,0.88187 -3.38621,-0.1797 -0.56307,-0.85936 -0.24593,-1.9109 0.74388,-2.46646 0.6479,-0.36366 0.82508,-0.33154 2.545,0.46122 l 1.84862,0.85208 4.59526,-0.0725 4.59526,-0.0725 0.0713,-5.75668 0.0713,-5.756682 -1.7911,-1.157993 c -1.68699,-1.090681 -3.55289,-2.013016 -4.07237,-2.013016 -0.12775,0 -0.23228,1.964531 -0.23228,4.365625 v 4.365626 h -3.53305 -3.53305 l -0.16462,-1.94744 c -0.11356,-1.343479 -0.38156,-2.36558 -0.86415,-3.295751 -0.81184,-1.564797 -0.72277,-2.452142 0.31437,-3.131703 0.88354,-0.578918 1.95596,-0.22836 2.44912,0.800581 0.32683,0.681907 0.28611,0.904563 -0.46241,2.528489 -0.58466,1.268449 -0.82079,2.176767 -0.82079,3.157364 v 1.37662 l 2.97656,-0.0748 2.97657,-0.0748 0.0727,-4.136361 c 0.0839,-4.77277 0.31235,-4.399378 -2.83877,-4.639869 -2.3544,-0.179686 -5.16821,0.472783 -7.94956,1.843351 l -1.71979,0.847463 v 8.334376 c 0,8.27896 0.004,8.34139 0.62327,9.38907 0.83466,1.4124 0.85862,2.69978 0.0623,3.34463 -0.82633,0.66912 -1.5079,0.6232 -2.28507,-0.15397 -0.8293,-0.82929 -0.81671,-1.30006 0.0782,-2.92455 l 0.7276,-1.32081 0.0865,-8.15323 0.0865,-8.153243 -0.74793,0.392035 c -0.41135,0.21562 -2.89104,1.640151 -5.510417,3.165624 -4.683594,2.727634 -4.776618,2.799234 -5.614654,4.321624 l -0.852157,1.54803 -0.0077,5.09323 -0.0077,5.09323 h -6.614583 -6.614584 v 13.19437 13.19437 l -1.918229,0.12955 c -1.391071,0.094 -2.33956,0.33839 -3.451376,0.88945 -1.433745,0.71062 -1.579327,0.73397 -2.245463,0.36008 -1.004409,-0.56376 -1.32597,-1.61136 -0.759825,-2.47541 0.679772,-1.03746 1.544396,-1.1191 3.121033,-0.2947 0.995439,0.5205 1.798767,0.72444 2.977795,0.75598 l 1.614607,0.0432 0.06862,-13.16302 0.06861,-13.16302 h 6.612115 6.612112 v -4.08802 c 0,-4.19598 -0.336372,-6.76969 -0.881819,-6.74712 -0.169844,0.007 -1.380368,0.6379 -2.690056,1.40193 -2.259957,1.3184 -2.385433,1.43904 -2.463368,2.36847 l -0.08212,0.97932 h -1.597996 c -1.538285,0 -1.784339,0.10434 -6.585106,2.79226 l -4.98711,2.79226 -0.07965,8.51868 c -0.07189,7.68888 -0.127389,8.60888 -0.569712,9.44472 -0.269533,0.50932 -4.526018,4.97817 -9.458854,9.93076 -9.652267,9.69093 -9.484856,9.47048 -8.556042,11.26661 0.557675,1.07843 0.392914,2.05874 -0.45148,2.6863 -1.407734,1.04622 -3.1323,-0.3566 -2.622718,-2.13341 0.548177,-1.91138 2.552815,-4.2194 11.059592,-12.73336 4.982027,-4.98624 9.086752,-9.31321 9.412256,-9.92188 0.548841,-1.02629 0.581549,-1.46016 0.664797,-8.81846 0.04816,-4.25648 0.0021,-7.73906 -0.102362,-7.73906 -0.366487,0 -4.489696,2.87197 -5.189707,3.61483 -0.701296,0.74422 -0.708263,0.7902 -0.795247,5.24871 -0.07153,3.66627 -0.173342,4.65497 -0.550638,5.3473 -0.254585,0.46717 -3.510682,3.86045 -7.235769,7.54063 l -6.772887,6.69124 -2.552316,4.23333 -2.552317,4.23333 -0.07567,9.45605 -0.07567,9.45605 1.398588,0.89091 c 0.769223,0.49 2.268101,1.33937 3.330841,1.88748 1.819025,0.93817 2.028332,0.98618 3.571875,0.81941 0.909754,-0.0983 2.249381,-0.48105 3.00942,-0.85985 1.59172,-0.79331 2.491642,-0.69815 3.168637,0.33507 0.576464,0.8798 0.229529,1.95541 -0.788019,2.4431 -0.666777,0.31958 -0.892389,0.27655 -2.424568,-0.4624 -1.551564,-0.74831 -3.769297,-1.15141 -3.164702,-0.57523 0.28695,0.27346 16.947491,9.79097 17.53163,10.01513 0.324567,0.12455 0.364898,-0.3316 0.265552,-3.00339 -0.07741,-2.08176 -0.250772,-3.40132 -0.511138,-3.89051 -0.549682,-1.03278 -8.317291,-8.83992 -9.327317,-9.3748 -0.544467,-0.28833 -1.696828,-0.47626 -3.363629,-0.54857 -2.387822,-0.10358 -2.64613,-0.0614 -4.437075,0.72466 -1.701498,0.74679 -1.977028,0.79851 -2.617797,0.4914 -1.000288,-0.47942 -1.341659,-1.55994 -0.768973,-2.43397 0.699535,-1.06762 1.662065,-1.16006 3.190984,-0.30643 1.159768,0.64752 1.693668,0.75358 4.636367,0.921 2.595353,0.14766 3.559519,0.31064 4.390572,0.74214 1.35753,0.70487 8.004141,7.39398 8.790824,8.84703 0.53525,0.98864 0.595313,1.46692 0.595313,4.74048 v 3.64091 l 2.804427,1.60914 c 1.542436,0.88504 2.911655,1.60915 3.042708,1.60915 0.342411,0 0.298215,-12.07664 -0.04877,-13.32629 -0.223393,-0.80454 -1.396203,-2.1594 -5.488628,-6.34061 -2.862492,-2.9246 -5.521309,-5.59119 -5.908484,-5.92577 -1.413714,-1.22165 -2.496693,-1.47696 -6.807626,-1.6049 l -4.071996,-0.12085 -1.776898,0.85961 c -1.638056,0.79244 -1.836248,0.83116 -2.536433,0.49558 -1.039632,-0.49829 -1.393555,-1.56776 -0.812362,-2.45477 0.70668,-1.07853 1.663547,-1.16192 3.209358,-0.27969 1.306342,0.74556 1.417327,0.76102 6.488451,0.90363 4.958766,0.13946 5.196155,0.17082 6.105314,0.80656 0.686493,0.48004 11.799708,11.61282 12.202872,12.22435 0.02856,0.0433 0.117858,3.52343 0.198437,7.73356 l 0.146503,7.65479 1.190625,0.69745 c 0.654844,0.38359 2.002023,1.15046 2.993729,1.70415 l 1.803103,1.0067 -0.08331,-10.15269 C 85.73663,174.04 85.664929,172.50811 85.288223,171.67866 84.789634,170.58085 70.57762,156.30753 69.320981,155.64255 c -0.510669,-0.27024 -1.741387,-0.46303 -3.450897,-0.54058 -2.439075,-0.11065 -2.764787,-0.0663 -3.96875,0.54056 -2.56772,1.29424 -3.656068,1.1541 -3.983437,-0.51293 -0.133789,-0.68128 -0.03558,-0.97219 0.513575,-1.52135 0.856014,-0.85602 1.362231,-0.85227 2.978748,0.0221 1.150085,0.62206 1.686536,0.71898 4.759545,0.8599 3.219606,0.14764 3.537429,0.2102 4.515678,0.88888 1.518314,1.05335 14.752624,14.4566 15.267641,15.46253 0.380601,0.74339 0.433523,2.15696 0.433523,11.57941 v 10.73265 l 0.859895,0.52429 c 0.835266,0.50927 1.383157,0.52432 19.127378,0.52528 l 18.26748,10e-4 z m -40.107633,-1.11245 c -0.777779,-0.77778 -0.831561,-1.71286 -0.147134,-2.55809 0.55278,-0.68265 0.626297,-0.67408 3.995618,0.46611 1.343189,0.45454 2.306349,0.48651 12.512009,0.41524 l 11.05679,-0.0772 -0.0766,-14.73944 -0.0766,-14.73945 -0.74314,-1.41093 c -0.87376,-1.6589 -0.84229,-2.30946 0.14729,-3.04556 0.88987,-0.66192 1.96478,-0.39467 2.54089,0.63173 0.3408,0.60717 0.30051,0.8334 -0.45484,2.5544 l -0.82875,1.88822 v 14.83847 14.83846 H 107.9282 96.397029 l -1.808488,0.79375 c -0.994667,0.43656 -1.942772,0.79375 -2.106896,0.79375 -0.164123,0 -0.59065,-0.29224 -0.947838,-0.64943 z m 1.84231,-0.49254 c 0.562054,-0.41098 0.475784,-1.19557 -0.176638,-1.60644 -0.98874,-0.62266 -2.045571,0.91699 -1.102681,1.60644 0.261919,0.19153 0.549765,0.34822 0.63966,0.34822 0.08989,0 0.37774,-0.15669 0.639659,-0.34822 z m 26.603113,-33.23647 c 0.41452,-0.77452 0.33666,-1.05847 -0.37973,-1.38488 -0.74977,-0.34162 -1.46304,0.0571 -1.46304,0.8178 0,1.04499 1.3626,1.4643 1.84277,0.56708 z m 5.04079,34.03819 c -1.01292,-0.51251 -1.28748,-1.61305 -0.6248,-2.50455 0.72967,-0.98163 1.70609,-1.04868 3.12892,-0.21484 0.86053,0.5043 1.59813,0.69859 2.83318,0.74625 l 1.66976,0.0644 0.0681,-16.46218 0.0682,-16.46219 3.23914,-0.0743 3.23915,-0.0743 v -2.91042 -2.91042 h -8.20209 -8.20208 l -1.32081,0.72761 c -1.62448,0.89489 -2.09525,0.90747 -2.92455,0.0782 -0.85278,-0.85278 -0.83451,-1.81241 0.0477,-2.50636 0.90706,-0.7135 1.24041,-0.6865 3.13258,0.25368 l 1.58076,0.78545 h 8.27497 8.27497 v 3.57187 3.57188 h -3.3073 -3.30729 v 16.53645 16.53646 h -1.6093 c -1.20983,0 -2.0582,0.19703 -3.41778,0.79375 -2.09861,0.92109 -1.8139,0.87221 -2.64144,0.4535 z m 1.43191,-0.86927 c 0.59914,-0.59913 0.51242,-1.13904 -0.23785,-1.48088 -1.09872,-0.50062 -1.9928,0.73189 -1.14554,1.57915 0.43121,0.43121 0.88624,0.39889 1.38339,-0.0983 z m -6.4727,-39.7835 c 0.41452,-0.77453 0.33666,-1.05847 -0.37973,-1.38488 -0.74977,-0.34162 -1.46304,0.0571 -1.46304,0.8178 0,1.04498 1.3626,1.4643 1.84277,0.56708 z m -22.480272,33.58265 c -1.301475,-0.58792 -2.122019,-0.7787 -3.373438,-0.7843 l -1.653646,-0.007 v -9.92188 -9.92187 h -1.344715 c -0.920264,0 -1.924106,0.2543 -3.180303,0.80564 -1.638914,0.71933 -1.912321,0.76887 -2.551734,0.46241 -1.000289,-0.47943 -1.34166,-1.55994 -0.768974,-2.43397 0.679561,-1.03714 1.566904,-1.12622 3.131703,-0.31437 0.929471,0.48223 1.952292,0.75059 3.292573,0.86388 l 1.944254,0.16435 0.06933,9.81718 0.06933,9.81717 1.551038,-0.0539 c 1.067548,-0.0371 1.952648,-0.26393 2.839402,-0.7276 1.608966,-0.84131 2.208057,-0.8461 3.029922,-0.0242 0.76591,0.76591 0.82531,1.46979 0.18641,2.20868 -0.750579,0.86805 -1.408267,0.87825 -3.241147,0.0503 z m 2.494642,-0.41374 c 0.59913,-0.59913 0.51242,-1.13903 -0.237849,-1.48088 -1.098728,-0.50061 -1.992805,0.7319 -1.145543,1.57916 0.431207,0.43121 0.886238,0.39888 1.383392,-0.0983 z M 86.862708,162.13667 c 0.476742,-0.47674 0.382508,-1.21659 -0.194273,-1.52528 -0.774526,-0.41451 -1.058474,-0.33665 -1.384882,0.37974 -0.500616,1.09872 0.731893,1.9928 1.579155,1.14554 z m 18.313562,20.61286 c -0.36139,-0.18181 -0.77587,-0.66839 -0.92108,-1.08129 -0.22058,-0.62721 -0.14315,-0.9672 0.4706,-2.06647 0.49214,-0.88148 0.78695,-1.87626 0.89319,-3.01397 l 0.15858,-1.69821 h -3.33726 -3.337274 l -0.07443,-15.1474 -0.07443,-15.1474 -0.74314,-1.41092 c -0.873755,-1.65891 -0.842291,-2.30947 0.147296,-3.04556 0.889868,-0.66193 1.964778,-0.39468 2.540888,0.63172 0.34084,0.60725 0.30041,0.83365 -0.4571,2.55957 l -0.83102,1.89339 0.06841,14.50257 0.06841,14.50257 3.20685,0.074 3.20686,0.074 0.12562,1.91036 c 0.0913,1.38781 0.32114,2.28229 0.84044,3.2701 0.49939,0.94995 0.66339,1.56466 0.54417,2.03967 -0.29369,1.17013 -1.42387,1.6924 -2.49559,1.15324 z m 1.43191,-0.86739 c 0.59914,-0.59913 0.51242,-1.13903 -0.23785,-1.48088 -1.09872,-0.50061 -1.9928,0.7319 -1.14554,1.57916 0.43121,0.43121 0.88624,0.39888 1.38339,-0.0983 z m -6.51631,-39.58922 c 0.85549,-0.85549 -0.463778,-2.31348 -1.394453,-1.54109 -0.751684,0.62385 -0.317455,1.85859 0.653624,1.85859 0.232834,0 0.566209,-0.14288 0.740829,-0.3175 z m 24.92815,40.45972 c -1.16351,-0.59086 -1.2788,-1.57275 -0.38792,-3.30388 l 0.7804,-1.51647 v -9.79348 -9.79349 l -0.75024,-1.76524 c -0.86075,-2.02527 -0.8431,-2.46709 0.12751,-3.19104 0.88658,-0.66128 2.05037,-0.35181 2.55285,0.67884 0.30506,0.62571 0.25429,0.90404 -0.46302,2.53835 l -0.80564,1.83559 v 9.23987 9.23987 l 0.80439,2.32151 c 0.74935,2.16268 0.77609,2.3647 0.39077,2.95276 -0.22749,0.34719 -0.52019,0.63126 -0.65046,0.63126 -0.13026,0 -0.39541,0.0583 -0.58921,0.12961 -0.1938,0.0713 -0.64805,-0.0205 -1.00943,-0.20406 z m 1.43191,-0.8705 c 0.59914,-0.59913 0.51242,-1.13903 -0.23785,-1.48088 -1.09872,-0.50061 -1.9928,0.7319 -1.14554,1.57916 0.43121,0.43121 0.88624,0.39888 1.38339,-0.0983 z m 0,-26.45833 c 0.59914,-0.59913 0.51242,-1.13904 -0.23785,-1.48088 -1.09872,-0.50061 -1.9928,0.73189 -1.14554,1.57916 0.43121,0.4312 0.88624,0.39888 1.38339,-0.0983 z m 31.25305,13.8146 c -0.85838,-0.85838 -0.8489,-1.44363 0.0511,-3.15501 l 0.72587,-1.38027 0.002,-8.06979 0.002,-8.0698 -1.2465,-0.0802 c -0.93558,-0.0602 -1.70559,0.12127 -3.08706,0.7276 -1.0123,0.44431 -1.95337,0.80783 -2.09126,0.80783 -0.13788,0 -0.56441,-0.24676 -0.94784,-0.54837 -0.93674,-0.73684 -0.93674,-1.87058 0,-2.60742 0.90241,-0.70983 1.28729,-0.69144 2.84125,0.1358 0.9089,0.48384 1.85729,0.72744 3.23904,0.83194 l 1.95382,0.14777 0.003,8.23003 c 0.003,8.21226 0.004,8.2331 0.66146,9.64538 0.71505,1.53601 0.85355,2.98851 0.32666,3.42579 -0.18271,0.15164 -0.65297,0.35621 -1.04502,0.45461 -0.55684,0.13976 -0.86045,0.0313 -1.38758,-0.49587 z m 1.81987,-0.58543 c 0.59913,-0.59913 0.51242,-1.13904 -0.23785,-1.48088 -1.09873,-0.50062 -1.9928,0.73189 -1.14554,1.57915 0.43121,0.43121 0.88624,0.39889 1.38339,-0.0983 z m -6.61458,-19.84375 c 0.59913,-0.59913 0.51241,-1.13904 -0.23785,-1.48088 -1.09873,-0.50062 -1.99281,0.73189 -1.14554,1.57915 0.4312,0.43121 0.88623,0.39889 1.38339,-0.0983 z m -74.192335,7.48196 c -0.948367,-0.47711 -1.265147,-1.55848 -0.706371,-2.41128 0.690494,-1.05382 1.546818,-1.12224 3.14814,-0.25151 1.387096,0.75424 1.401558,0.75598 6.285087,0.75598 h 4.894792 l 0.06933,-9.81778 0.06933,-9.81778 1.915047,-0.1465 c 1.365832,-0.10448 2.317863,-0.35608 3.319631,-0.87731 1.634673,-0.85054 2.545819,-0.71224 3.217439,0.48838 0.36369,0.65016 0.36369,0.79807 0,1.44822 -0.67082,1.1992 -1.562189,1.33074 -3.203204,0.47267 -0.935583,-0.4892 -1.972215,-0.78359 -3.069402,-0.87166 l -1.65671,-0.13298 v 9.9581 9.9581 h -5.035878 c -4.770874,0 -5.101553,0.033 -6.283854,0.62719 -1.78828,0.89873 -2.224718,0.98977 -2.963374,0.61816 z m 1.530189,-0.7691 c 0.476742,-0.47675 0.382508,-1.2166 -0.194273,-1.52528 -0.774525,-0.41451 -1.058473,-0.33666 -1.384882,0.37973 -0.500615,1.09873 0.731893,1.99281 1.579155,1.14555 z m 19.843746,-19.84375 c 0.47675,-0.47675 0.38251,-1.2166 -0.194268,-1.52528 -0.774526,-0.41451 -1.058474,-0.33666 -1.384883,0.37973 -0.500615,1.09873 0.731894,1.99281 1.579151,1.14555 z m -34.606824,13.99343 c -0.944528,-0.4709 -1.260904,-1.55443 -0.702649,-2.40644 0.690494,-1.05382 1.546818,-1.12224 3.14814,-0.25151 l 1.390295,0.75597 h 8.202084 8.202083 v -8.20208 -8.20208 l -0.755978,-1.3903 c -0.870725,-1.60132 -0.802309,-2.45764 0.251516,-3.14814 0.864518,-0.56645 1.911723,-0.24445 2.476315,0.76144 0.377145,0.67193 0.350385,0.81601 -0.454838,2.44891 l -0.855556,1.73498 v 8.31579 8.31579 l -8.532813,0.0797 c -8.098359,0.0757 -8.580364,0.10783 -9.466718,0.63172 -1.310283,0.77447 -2.14371,0.93422 -2.901881,0.55623 z m 1.533911,-0.76427 c 0.476742,-0.47674 0.382508,-1.21659 -0.194273,-1.52527 -0.774525,-0.41452 -1.058473,-0.33666 -1.384882,0.37973 -0.500615,1.09873 0.731893,1.9928 1.579155,1.14554 z m 19.843751,-19.84375 c 0.476742,-0.47674 0.382508,-1.21659 -0.194273,-1.52527 -0.774526,-0.41452 -1.058474,-0.33666 -1.384882,0.37973 -0.500616,1.09873 0.731893,1.9928 1.579155,1.14554 z m 31.177142,13.79205 c -0.78008,-0.61361 -0.89123,-1.43804 -0.30644,-2.27294 0.65192,-0.93075 1.5654,-0.97605 3.25106,-0.16123 l 1.51761,0.73358 h 16.1737 16.17369 l 2.27793,-0.78947 2.27792,-0.78947 0.57633,0.57633 c 0.63611,0.63611 0.76695,1.93536 0.2568,2.55005 -0.63754,0.7682 -1.61048,0.76382 -3.03912,-0.0137 l -1.35975,-0.74001 H 139.03854 122.2375 l -1.38027,0.7276 c -1.6549,0.87238 -1.91514,0.88894 -2.81738,0.17924 z m 1.89577,-0.56288 c 0.85549,-0.85549 -0.46378,-2.31348 -1.39445,-1.54109 -0.75169,0.62385 -0.31746,1.85859 0.65362,1.85859 0.23283,0 0.56621,-0.14288 0.74083,-0.3175 z m 39.58923,-0.0983 c 0.59913,-0.59913 0.51242,-1.13903 -0.23785,-1.48088 -1.09873,-0.50061 -1.9928,0.7319 -1.14554,1.57916 0.43121,0.43121 0.88624,0.39888 1.38339,-0.0983 z M 84.919224,122.91099 c -0.357188,-0.35719 -0.649433,-0.89838 -0.649433,-1.20265 0,-0.65346 1.116015,-1.85209 1.724438,-1.85209 0.234063,0 1.172183,0.36009 2.084707,0.80019 l 1.659136,0.80019 4.608047,-0.0726 4.608047,-0.0726 v -8.09156 -8.09155 l -0.757237,-1.49581 c -0.868807,-1.7162 -0.802508,-2.57223 0.252775,-3.26368 0.888611,-0.58224 1.956726,-0.22677 2.457386,0.81783 0.33847,0.70618 0.30291,0.89427 -0.4624,2.44625 l -0.829065,1.68125 v 8.32936 8.32937 h -4.967674 -4.967674 l -1.580764,0.78545 c -1.93452,0.96121 -2.351672,0.98124 -3.180289,0.15262 z m 1.943484,-0.46182 c 0.476742,-0.47674 0.382508,-1.21659 -0.194273,-1.52528 -0.774526,-0.41451 -1.058474,-0.33665 -1.384882,0.37974 -0.500616,1.09872 0.731893,1.9928 1.579155,1.14554 z m 13.229162,-19.84375 c 0.47675,-0.47674 0.38251,-1.21659 -0.194268,-1.52528 -0.774526,-0.41451 -1.058474,-0.33665 -1.384883,0.37974 -0.500615,1.09872 0.731894,1.9928 1.579151,1.14554 z m 13.1309,79.27672 c 0.59913,-0.59913 0.51241,-1.13903 -0.23785,-1.48088 -1.09873,-0.50061 -1.99281,0.7319 -1.14555,1.57916 0.43121,0.43121 0.88624,0.39888 1.3834,-0.0983 z m -52.662901,-6.79412 c 0.375441,-0.59617 -0.0652,-1.35576 -0.854644,-1.47327 -0.401597,-0.0598 -0.659392,0.12134 -0.88855,0.62429 -0.280789,0.61627 -0.255952,0.75741 0.190759,1.08405 0.628595,0.45964 1.166204,0.37824 1.552435,-0.23507 z m 92.350401,0.17954 c 0.59913,-0.59913 0.51241,-1.13904 -0.23785,-1.48088 -1.09873,-0.50061 -1.99281,0.73189 -1.14554,1.57916 0.4312,0.4312 0.88623,0.39888 1.38339,-0.0983 z m 15.36473,-6.21807 c 1.01865,-0.68673 2.2688,-1.68435 2.77813,-2.21692 0.8629,-0.90231 0.92437,-1.08007 0.90153,-2.60722 -0.0289,-1.93455 -4.79182,-20.10715 -5.20327,-19.85286 -0.1376,0.085 -0.41662,0.55297 -0.62005,1.03986 -0.51617,1.23535 -0.55386,25.38344 -0.0392,25.08043 0.1819,-0.10708 1.16417,-0.75656 2.18281,-1.44329 z M 46.16979,161.79271 c 0,-4.58391 -0.04797,-8.33437 -0.106598,-8.33437 -0.05863,0 -0.87507,1.27992 -1.814312,2.84427 -3.909631,6.51166 -4.301549,8.08255 -2.562468,10.2709 0.823991,1.03685 3.824244,3.55358 4.236319,3.55358 0.147795,0 0.247059,-3.34862 0.247059,-8.33438 z m 7.775496,6.68073 c 0.375441,-0.59617 -0.0652,-1.35576 -0.854645,-1.47327 -0.401597,-0.0598 -0.659391,0.12134 -0.888551,0.62429 -0.280788,0.61627 -0.255951,0.7574 0.190761,1.08405 0.628594,0.45964 1.166205,0.37823 1.552435,-0.23507 z m 52.662894,0.17954 c 0.59914,-0.59913 0.51242,-1.13904 -0.23785,-1.48088 -1.09872,-0.50062 -1.9928,0.73189 -1.14554,1.57915 0.43121,0.43121 0.88624,0.39889 1.38339,-0.0983 z m -52.81839,-6.51631 c 0.476743,-0.47674 0.382509,-1.21659 -0.194273,-1.52528 -0.774526,-0.41451 -1.058474,-0.33665 -1.384882,0.37974 -0.500614,1.09872 0.731892,1.9928 1.579155,1.14554 z m 92.50589,-0.0983 c 0.59914,-0.59913 0.51242,-1.13903 -0.23785,-1.48088 -1.09872,-0.50061 -1.9928,0.7319 -1.14554,1.57916 0.43121,0.43121 0.88624,0.39888 1.38339,-0.0983 z m -92.50589,-6.5163 c 0.476743,-0.47675 0.382509,-1.2166 -0.194273,-1.52528 -0.774526,-0.41451 -1.058474,-0.33666 -1.384882,0.37973 -0.500614,1.09873 0.731892,1.99281 1.579155,1.14555 z m 6.614584,0 c 0.476742,-0.47675 0.382508,-1.2166 -0.194273,-1.52528 -0.774526,-0.41451 -1.058474,-0.33666 -1.384882,0.37973 -0.500616,1.09873 0.731893,1.99281 1.579155,1.14555 z m 85.891306,-6.71286 c 0.59914,-0.59913 0.51242,-1.13904 -0.23785,-1.48088 -1.09872,-0.50062 -1.9928,0.73189 -1.14554,1.57915 0.43121,0.43121 0.88624,0.39889 1.38339,-0.0983 z M 73.633541,142.2929 c 0.476742,-0.47674 0.382508,-1.21659 -0.194273,-1.52528 -0.774526,-0.41451 -1.058474,-0.33665 -1.384882,0.37974 -0.500616,1.09872 0.731893,1.9928 1.579155,1.14554 z m -8.35555,-14.20745 c 0.407336,-0.89381 0.561446,-1.93638 0.664861,-4.49792 0.09187,-2.27568 0.04848,-3.25041 -0.136681,-3.06984 -0.220655,0.21519 -11.169737,18.14626 -11.632325,19.05 -0.07449,0.14552 2.274171,-2.11667 5.219235,-5.02708 3.735808,-3.69186 5.514972,-5.64342 5.88491,-6.45516 z m 61.315829,7.39859 c 0.41451,-0.77452 0.33665,-1.05847 -0.37974,-1.38488 -0.74977,-0.34162 -1.46304,0.0571 -1.46304,0.8178 0,1.04499 1.3626,1.4643 1.84278,0.56708 z m -33.116529,-6.42031 c 0.476742,-0.47674 0.382508,-1.21659 -0.194273,-1.52527 -0.774525,-0.41452 -1.058473,-0.33666 -1.384882,0.37973 -0.500616,1.09873 0.731893,1.9928 1.579155,1.14554 z m 67.176339,-8.35444 c -0.28491,-1.42456 -1.29115,-3.78108 -1.9477,-4.56135 l -0.66443,-0.78962 h -3.15148 -3.15148 v -1.79193 -1.79193 l -2.91041,-1.36086 -2.91042,-1.36086 v 6.1955 6.19549 h 7.44141 7.4414 z m -53.94717,-4.87472 c 0.47674,-0.47675 0.38251,-1.2166 -0.19427,-1.52528 -0.77453,-0.41451 -1.05848,-0.33666 -1.38489,0.37973 -0.50061,1.09873 0.7319,1.99281 1.57916,1.14555 z m 50.17823,-1.25087 c -0.29959,-0.29256 -3.22923,-1.95496 -3.88938,-2.207 -0.40256,-0.15369 -0.46302,-0.005 -0.46302,1.13783 v 1.31462 h 2.30188 c 1.41923,0 2.20549,-0.0941 2.05052,-0.24545 z M 113.32104,109.22 c 0.47674,-0.47674 0.38251,-1.21659 -0.19427,-1.52527 -0.77453,-0.41452 -1.05848,-0.33666 -1.38488,0.37973 -0.50062,1.09873 0.73189,1.99281 1.57915,1.14554 z m -27.463749,-1.40229 c 0,-0.49972 -0.50805,-0.49608 -1.175049,0.008 -0.486143,0.3677 -0.468466,0.38847 0.330729,0.38847 0.574117,0 0.84432,-0.12701 0.84432,-0.39688 z M 113.32104,95.990836 c 0.47674,-0.476743 0.38251,-1.21659 -0.19427,-1.525275 -0.77453,-0.414514 -1.05848,-0.336656 -1.38488,0.379731 -0.50062,1.098728 0.73189,1.992807 1.57915,1.145544 z"
       id="path861" />
  </g>
</svg>
