<?xml version="1.0" encoding="UTF-8" standalone="no"?>
<svg
   xmlns:dc="http://purl.org/dc/elements/1.1/"
   xmlns:cc="http://creativecommons.org/ns#"
   xmlns:rdf="http://www.w3.org/1999/02/22-rdf-syntax-ns#"
   xmlns:svg="http://www.w3.org/2000/svg"
   xmlns="http://www.w3.org/2000/svg"
   xmlns:sodipodi="http://sodipodi.sourceforge.net/DTD/sodipodi-0.dtd"
   xmlns:inkscape="http://www.inkscape.org/namespaces/inkscape"
   width="141.02028mm"
   height="119.46241mm"
   viewBox="0 0 141.02028 119.46241"
   version="1.1"
   id="svg8"
   inkscape:version="1.0.2 (394de47547, 2021-03-26)"
   sodipodi:docname="keycap_simple_10.svg">
  <defs
     id="defs2" />
  <sodipodi:namedview
     id="base"
     pagecolor="#ffffff"
     bordercolor="#666666"
     borderopacity="1.0"
     inkscape:pageopacity="0.0"
     inkscape:pageshadow="2"
     inkscape:zoom="0.12374369"
     inkscape:cx="4612.763"
     inkscape:cy="3393.5957"
     inkscape:document-units="mm"
     inkscape:current-layer="layer1"
     inkscape:document-rotation="0"
     showgrid="false"
     inkscape:window-width="1920"
     inkscape:window-height="1043"
     inkscape:window-x="1920"
     inkscape:window-y="0"
     inkscape:window-maximized="1"
     fit-margin-top="0"
     fit-margin-left="0"
     fit-margin-right="0"
     fit-margin-bottom="0" />
  <metadata
     id="metadata5">
    <rdf:RDF>
      <cc:Work
         rdf:about="">
        <dc:format>image/svg+xml</dc:format>
        <dc:type
           rdf:resource="http://purl.org/dc/dcmitype/StillImage" />
        <dc:title></dc:title>
      </cc:Work>
    </rdf:RDF>
  </metadata>
  <g
     inkscape:label="Layer 1"
     inkscape:groupmode="layer"
     id="layer1"
     transform="translate(-34.520426,-88.759612)">
    <path
       style="color:#feffff;font-style:normal;font-variant:normal;font-weight:normal;font-stretch:normal;font-size:medium;line-height:normal;font-family:sans-serif;font-variant-ligatures:normal;font-variant-position:normal;font-variant-caps:normal;font-variant-numeric:normal;font-variant-alternates:normal;font-variant-east-asian:normal;font-feature-settings:normal;font-variation-settings:normal;text-indent:0;text-align:start;text-decoration:none;text-decoration-line:none;text-decoration-style:solid;text-decoration-color:#feffff;letter-spacing:normal;word-spacing:normal;text-transform:none;writing-mode:lr-tb;direction:ltr;text-orientation:mixed;dominant-baseline:auto;baseline-shift:baseline;text-anchor:start;white-space:normal;shape-padding:0;shape-margin:0;inline-size:0;clip-rule:nonzero;display:inline;overflow:visible;visibility:visible;opacity:1;isolation:auto;mix-blend-mode:normal;color-interpolation:sRGB;color-interpolation-filters:linearRGB;solid-color:#feffff;solid-opacity:1;vector-effect:none;fill:#feffff;fill-opacity:1;fill-rule:nonzero;stroke:#feffff;stroke-width:10;stroke-linecap:butt;stroke-linejoin:round;stroke-miterlimit:4;stroke-dasharray:none;stroke-dashoffset:0;stroke-opacity:1;color-rendering:auto;image-rendering:auto;shape-rendering:auto;text-rendering:auto;enable-background:accumulate;stop-color:#feffff;stop-opacity:1"
       d="m 112.21196,93.791008 -0.008,0.0019 c -5.52077,1.06108 -8.86616,3.55759 -13.634768,6.273442 l -19.1914,11.04297 v 0.002 c -1.89324,1.11087 -4.72921,2.60148 -7.43555,4.18945 -2.70634,1.58798 -5.28164,3.2666 -6.67578,4.78711 l -0.01,0.01 -13.96093,22.98828 -8.42774,14.36524 c -1.31545,2.21702 -3.47741,5.27896 -3.33594,8.02148 0.0546,1.07474 0.82259,2.18581 1.97266,3.29297 1.15007,1.10716 2.69339,2.21227 4.33789,3.25195 3.289,2.07937 6.99048,3.8961 8.74805,4.88086 l 35.18359,20.07617 h 0.002 c 3.27072,1.79903 5.85063,3.6329 8.63672,4.85157 2.786098,1.21866 5.779508,1.81529 9.839848,1.13281 1.81278,-0.30395 5.11017,-1.97091 8.42773,-3.82617 3.31699,-1.85495 6.63425,-3.89994 8.40625,-4.95313 l 30.38672,-17.51367 0.002,-0.002 c 1.48389,-0.84519 4.89765,-2.59024 8.07227,-4.4668 1.58777,-0.93855 3.11777,-1.90998 4.32031,-2.82227 1.20254,-0.91228 2.08148,-1.75404 2.36914,-2.49609 0.36081,-0.93336 0.26187,-2.22055 0.0274,-3.50977 -0.23453,-1.28921 -0.61216,-2.58015 -0.83985,-3.48828 l -4.29492,-15.96484 -4.78906,-17.55469 c -0.56356,-2.04682 -1.17729,-4.73388 -2.08008,-6.93555 0.009,-0.0722 0.08,-0.14953 0.0762,-0.2207 l -0.16015,0.008 c -0.20849,-0.48452 -0.33269,-1.101 -0.5879,-1.49804 -1.0141,-1.57779 -3.34205,-2.97666 -5.83984,-4.21875 -2.49548,-1.24095 -5.16387,-2.31466 -6.84375,-3.18164 l -0.006,-0.004 -16.80469,-9.91211 -0.006,-0.004 c -2.89579,-1.885472 -4.9832,-3.637112 -7.28906,-4.871102 -2.30771,-1.23498 -4.83559,-1.94389 -8.57812,-1.73242 z m 0.0332,0.26367 c 3.69779,-0.20758 6.15733,0.48512 8.42968,1.70117 2.27422,1.21705 4.36192,2.96694 7.27539,4.863282 l 0.002,0.002 16.82226,9.92383 h 0.004 c 1.70178,0.87885 4.36658,1.95372 6.85156,3.18945 2.48498,1.23573 4.78457,2.64226 5.73633,4.12305 0.25451,0.39596 0.3868,1.03247 0.5957,1.52734 -0.0546,0.49424 -0.42596,1.10748 -1.19922,1.79492 -0.84486,0.7511 -2.01868,1.55626 -3.28125,2.33399 -2.52514,1.55545 -5.39691,3.00247 -6.72265,3.75586 h -0.002 l -24.41015,14.02734 c -4.67119,2.57451 -7.28802,4.86947 -12.58985,6.10937 -2.18564,0.51272 -4.46012,0.97873 -6.68945,0.73829 -3.06562,-0.34092 -7.668448,-1.82565 -12.246088,-4.02735 -6.88049,-3.30814 -14.20234,-7.75255 -18.20508,-10.43945 h -0.002 c -1.6797,-1.13041 -4.1528,-2.89814 -5.97461,-4.98828 -1.8207,-2.08885 -2.97993,-4.47571 -2.10938,-6.88868 l 0.93555,-1.5371 c 1.35062,-1.47091 3.91287,-3.15218 6.60937,-4.73438 2.6991,-1.58372 5.53201,-3.07449 7.43555,-4.19141 v 0.002 L 98.700272,100.295 c 4.779798,-2.722232 8.086428,-5.188802 13.544928,-6.240242 z m 45.88476,25.757812 c 0.81308,2.11813 1.41167,4.63842 1.95703,6.61914 l 4.78906,17.55469 4.29297,15.96094 c 0.23007,0.9174 0.60492,2.1988 0.83594,3.46875 0.23114,1.27062 0.31079,2.52979 -0.0137,3.36914 -0.24416,0.62982 -1.09465,1.47723 -2.2832,2.37891 -1.18856,0.90168 -2.71199,1.86899 -4.29493,2.80468 -3.16586,1.87139 -6.57165,3.61308 -8.07031,4.4668 l -30.38867,17.51563 c -1.77628,1.0557 -5.09143,3.09767 -8.40234,4.94921 -3.31092,1.85155 -6.63562,3.51081 -8.3418,3.79688 -4.01475,0.67482 -6.93977,0.0903 -9.691408,-1.11328 -2.75116,-1.20339 -5.32842,-3.0329 -8.61328,-4.83985 h -0.002 l -35.18164,-20.07617 h -0.002 c -1.77462,-0.99432 -5.46431,-2.80636 -8.73632,-4.875 -1.63601,-1.03431 -3.16668,-2.13259 -4.29493,-3.21875 -1.12824,-1.08615 -1.844,-2.15734 -1.89257,-3.11328 -0.13369,-2.59148 1.97569,-5.64174 3.30078,-7.875 l 8.42578,-14.36328 12.64844,-20.82617 c -0.49067,2.29669 0.58724,4.53674 2.26953,6.46679 1.85152,2.12422 4.34156,3.90071 6.02734,5.03516 4.01438,2.6948 11.33988,7.14028 18.23828,10.45703 4.5981,2.21154 9.21171,3.70574 12.332028,4.05274 2.28447,0.24639 4.58875,-0.23028 6.7793,-0.74414 5.35459,-1.25225 8.0091,-3.57363 12.66016,-6.13672 v -0.002 l 24.41015,-14.02539 c 1.30951,-0.74415 4.19344,-2.19773 6.73243,-3.76172 1.26949,-0.78199 2.45269,-1.59173 3.31835,-2.36132 0.61555,-0.54724 0.98677,-1.06327 1.19141,-1.56446 z"
       id="Selection" />
  </g>
</svg>
