<?xml version="1.0" encoding="UTF-8" standalone="no"?>
<svg
   xmlns:dc="http://purl.org/dc/elements/1.1/"
   xmlns:cc="http://creativecommons.org/ns#"
   xmlns:rdf="http://www.w3.org/1999/02/22-rdf-syntax-ns#"
   xmlns:svg="http://www.w3.org/2000/svg"
   xmlns="http://www.w3.org/2000/svg"
   xmlns:sodipodi="http://sodipodi.sourceforge.net/DTD/sodipodi-0.dtd"
   xmlns:inkscape="http://www.inkscape.org/namespaces/inkscape"
   version="1.1"
   id="svg2"
   width="237.08061"
   height="79.075119"
   viewBox="0 0 237.08061 79.075119"
   sodipodi:docname="keyprez_name.svg"
   inkscape:version="1.0.2 (394de47547, 2021-03-26)">
  <metadata
     id="metadata8">
    <rdf:RDF>
      <cc:Work
         rdf:about="">
        <dc:format>image/svg+xml</dc:format>
        <dc:type
           rdf:resource="http://purl.org/dc/dcmitype/StillImage" />
        <dc:title></dc:title>
      </cc:Work>
    </rdf:RDF>
  </metadata>
  <defs
     id="defs6">
    <filter
       style="color-interpolation-filters:sRGB"
       inkscape:label="Invert"
       id="filter866">
      <feColorMatrix
         values="-1 0 0 0 1 0 -1 0 0 1 0 0 -1 0 1 0.21 0.72 0.07 1 0 "
         result="color2"
         id="feColorMatrix864" />
    </filter>
  </defs>
  <sodipodi:namedview
     pagecolor="#ffffff"
     bordercolor="#666666"
     borderopacity="1"
     objecttolerance="10"
     gridtolerance="10"
     guidetolerance="10"
     inkscape:pageopacity="0"
     inkscape:pageshadow="2"
     inkscape:window-width="1920"
     inkscape:window-height="1043"
     id="namedview4"
     showgrid="false"
     inkscape:zoom="3.6078819"
     inkscape:cx="137.85199"
     inkscape:cy="60.808049"
     inkscape:window-x="1920"
     inkscape:window-y="0"
     inkscape:window-maximized="1"
     inkscape:current-layer="g10"
     inkscape:document-rotation="0"
     fit-margin-top="0"
     fit-margin-left="0"
     fit-margin-right="0"
     fit-margin-bottom="0" />
  <g
     inkscape:groupmode="layer"
     inkscape:label="Image"
     id="g10"
     transform="translate(-54.959699,-8.96244)">
    <path
       style="fill:#feffff;fill-opacity:1;stroke:#feffff;stroke-width:1.4;stroke-linejoin:round;stroke-miterlimit:4;stroke-dasharray:none;stroke-opacity:1"
       d="m 123.94833,87.070892 -0.26667,-0.266664 V 81.270892 75.73756 h 0.8 0.8 v 5.8 5.8 h -0.53333 -0.53333 z m 0.83069,-8.215832 -0.1384,-2.9175 -0.001,5.6 -10e-4,5.6 0.13953,-2.6825 0.13954,-2.6825 -0.1384,-2.9175 z m 33.16931,8.215832 -0.26667,-0.266664 V 81.270892 75.73756 h 0.8 0.8 v 5.8 5.8 h -0.53333 -0.53334 z m 0.83069,-8.215832 -0.1384,-2.9175 -0.001,5.6 -0.001,5.6 0.13953,-2.6825 0.13954,-2.6825 -0.1384,-2.9175 z m 12.76931,8.215832 -0.26667,-0.266664 V 81.270892 75.73756 h 0.8 0.8 v 5.8 5.8 h -0.53333 -0.53334 z m 0.83069,-8.215832 -0.1384,-2.9175 -0.001,5.6 -0.001,5.6 0.13953,-2.6825 0.13954,-2.6825 -0.1384,-2.9175 z m -44.9189,7.647648 -0.26875,-0.434852 0.37217,-0.372172 0.37217,-0.372168 10.16769,0.107024 10.16768,0.10702 0.13462,0.7 0.13462,0.7 H 138.1346 127.72888 Z m 20.22154,-0.365148 v -0.4 h -9.8 -9.8 v 0.4 0.4 h 9.8 9.8 z m 13.77846,0.365148 -0.26875,-0.434852 0.38234,-0.38234 0.38234,-0.38234 3.35838,0.117192 3.35838,0.117192 0.13376,0.7 0.13375,0.7 h -3.60572 -3.60573 z m 6.62154,-0.365148 v -0.4 h -3 -3 v 0.4 0.4 h 3 3 z m -19.37065,-0.752512 -0.21786,-0.352516 2.18274,-4.447484 2.18276,-4.447488 h 0.6115 0.61151 v 0.544272 0.544272 l -1.99226,4.255728 -1.99227,4.255728 h -0.58412 -0.58414 z m 3.33184,-5.447488 v -0.4 l -1.36119,2.6 -1.36118,2.6 v 0.4 0.4 l 1.36118,-2.6 1.36119,-2.6 z m 0.43881,-0.8 v -0.2 h -0.2 -0.2 v 0.2 0.2 h 0.2 0.2 z m 0.76789,-1.8 0.47624,-1 -0.62206,0.776452 -0.62207,0.776452 v 0.390216 0.390212 l 0.14582,-0.166664 0.14582,-0.166668 z M 55.94833,71.870892 55.681662,71.604228 v -5.533336 -5.533328 h 0.8 0.8 v 5.799996 5.8 H 56.74833 56.214994 Z m 0.830688,-8.215828 -0.1384,-2.9175 -0.0012,5.599996 -0.0012,5.6 0.139536,-2.6825 0.139532,-2.6825 -0.1384,-2.917496 z m 12.769311,8.215828 -0.266668,-0.266664 v -5.533336 -5.533328 h 0.8 0.8 v 5.799996 5.8 h -0.533332 -0.533336 z m 0.830688,-8.215828 -0.1384,-2.9175 -0.0012,5.599996 -0.0012,5.6 0.139536,-2.6825 0.139532,-2.6825 -0.1384,-2.917496 z m 46.769313,8.215828 -0.26667,-0.266664 v -5.533336 -5.533328 h 0.8 0.8 v 5.799996 5.8 h -0.53333 -0.53333 z m 0.83069,-8.215828 -0.1384,-2.9175 -0.001,5.599996 -10e-4,5.6 0.13953,-2.6825 0.13954,-2.6825 -0.1384,-2.917496 z m 39.96931,8.215828 -0.26667,-0.266664 v -5.533336 -5.533328 h 0.8 0.8 v 5.799996 5.8 h -0.53333 -0.53334 z m 0.83069,-8.215828 -0.1384,-2.9175 -0.001,5.599996 -0.001,5.6 0.13953,-2.6825 0.13954,-2.6825 -0.1384,-2.917496 z m 39.96931,8.215828 -0.26667,-0.266664 v -5.533336 -5.533328 h 0.8 0.8 v 5.799996 5.8 h -0.53333 -0.53334 z m 0.83069,-8.215828 -0.1384,-2.9175 -0.001,5.599996 -0.001,5.6 0.13953,-2.6825 0.13954,-2.6825 -0.1384,-2.917496 z m 12.76931,8.215828 -0.26667,-0.266664 v -5.533336 -5.533328 h 0.8 0.8 v 5.799996 5.8 h -0.53333 -0.53334 z m 0.83069,-8.215828 -0.1384,-2.9175 -10e-4,5.599996 -0.001,5.6 0.13953,-2.6825 0.13954,-2.6825 -0.1384,-2.917496 z m 73.96931,8.215828 -0.26667,-0.266664 v -5.533336 -5.533328 h 0.8 0.8 v 5.799996 5.8 h -0.53333 -0.53334 z m 0.83069,-8.215828 -0.1384,-2.9175 -10e-4,5.599996 -0.001,5.6 0.13953,-2.6825 0.13954,-2.6825 -0.1384,-2.917496 z m -228.518898,7.647644 -0.268756,-0.434852 0.38234,-0.38234 0.38234,-0.38234 3.358384,0.117192 3.358383,0.117192 0.133752,0.7 0.133756,0.7 h -3.605723 -3.605724 z m 6.621539,-0.365148 v -0.4 h -2.999999 -3 v 0.4 0.4 h 3 2.999999 z m 13.778462,0.365148 -0.268754,-0.434852 0.382339,-0.38234 0.382339,-0.38234 3.358384,0.117192 3.358384,0.117192 0.133752,0.7 0.133756,0.7 H 83.7346 80.128877 Z m 6.62154,-0.365148 v -0.4 h -3 -3 v 0.4 0.4 h 3 3 z m 6.97846,0.365148 -0.268756,-0.434852 0.372172,-0.372172 0.372168,-0.372168 10.167693,0.107024 10.16768,0.10702 0.13462,0.7 0.13462,0.7 H 104.1346 93.728875 Z M 113.68166,70.93756 v -0.4 h -9.8 -9.799997 v 0.4 0.4 h 9.799997 9.8 z m 13.77846,0.365148 -0.26875,-0.434852 0.37513,-0.375136 0.37514,-0.375136 6.76491,0.109988 6.7649,0.109988 0.13444,0.7 0.13443,0.7 h -7.00572 -7.00572 z m 13.42154,-0.365148 v -0.4 h -6.4 -6.4 v 0.4 0.4 h 6.4 6.4 z m 2.2536,0.486728 -0.19361,-0.313272 0.4024,-1.886728 0.4024,-1.886728 h 0.9676 0.96761 v 1.019864 1.019864 l -0.61027,1.180136 -0.61027,1.180136 h -0.56612 -0.56612 z m 1.53613,-1.666864 0.61027,-1.180136 V 68.157424 67.73756 h -0.6 -0.6 v 0.967284 0.967288 l -0.24279,0.632712 -0.2428,0.632716 h 0.23253 0.23252 z m 30.38873,1.545284 -0.26875,-0.434852 0.37513,-0.375136 0.37514,-0.375136 6.76491,0.109988 6.7649,0.109988 0.13444,0.7 0.13443,0.7 h -7.00572 -7.00573 z m 13.42154,-0.365148 v -0.4 h -6.4 -6.4 v 0.4 0.4 h 6.4 6.4 z m 13.77846,0.365148 -0.26875,-0.434852 0.38234,-0.38234 0.38234,-0.38234 3.35838,0.117192 3.35838,0.117192 0.13376,0.7 0.13375,0.7 h -3.60572 -3.60573 z m 6.62154,-0.365148 v -0.4 h -3 -3 v 0.4 0.4 h 3 3 z m 27.37846,0.365148 -0.26875,-0.434852 0.37217,-0.372172 0.37217,-0.372168 10.16768,0.107024 10.16769,0.10702 0.13462,0.7 0.13462,0.7 H 246.9346 236.52887 Z m 20.22154,-0.365148 v -0.4 h -9.8 -9.8 v 0.4 0.4 h 9.8 9.8 z m 6.97846,0.365148 -0.26875,-0.434852 0.37217,-0.372172 0.37217,-0.372168 10.16768,0.107024 10.16769,0.10702 0.13462,0.7 0.13462,0.7 H 274.1346 263.72887 Z m 20.22154,-0.365148 v -0.4 h -9.8 -9.8 v 0.4 0.4 h 9.8 9.8 z m -207.543345,-4.3 -1.950642,-3.899996 -0.27996,-0.9 -0.279964,-0.9 h 0.834696 0.83469 l 1.992265,4.255724 1.992263,4.255728 v 0.544272 0.544272 H 78.68531 78.088957 Z m 2.269797,2.498308 -0.456401,-1.001688 -0.167432,0.167432 -0.167432,0.167432 0.446481,0.834256 0.446482,0.83426 h 0.177351 0.177351 z M 77.681663,67.53756 v -0.2 h -0.2 -0.2 v 0.2 0.2 h 0.2 0.2 z m -1.754316,-3.659344 -1.406334,-2.740652 -0.01968,0.292428 -0.01968,0.292424 1.279514,2.59472 1.279517,2.594724 0.146495,-0.146496 0.146495,-0.146492 z m 13.810968,2.759344 -1.95064,-3.899996 -0.279964,-0.9 -0.27996,-0.9 h 0.834692 0.834692 l 1.992264,4.255724 1.992264,4.255728 v 0.544272 0.544272 h -0.596352 -0.596356 z m 2.269796,2.498308 -0.4564,-1.001688 -0.167432,0.167432 -0.167432,0.167432 0.44648,0.834256 0.446484,0.83426 h 0.177348 0.177352 z M 91.281663,67.53756 v -0.2 h -0.2 -0.2 v 0.2 0.2 h 0.2 0.2 z m -1.754316,-3.659344 -1.406336,-2.740652 -0.01968,0.292428 -0.01968,0.292424 1.279516,2.59472 1.279516,2.594724 0.146496,-0.146496 0.146496,-0.146492 -1.40634,-2.740656 z m 34.210973,2.759344 -1.95064,-3.899996 -0.27997,-0.9 -0.27996,-0.9 h 0.83469 0.8347 l 1.99226,4.255724 1.99226,4.255728 v 0.544272 0.544272 h -0.59635 -0.59635 z m 2.26979,2.498308 -0.4564,-1.001688 -0.16743,0.167432 -0.16743,0.167432 0.44648,0.834256 0.44648,0.83426 h 0.17735 0.17735 z m -0.72645,-1.598308 v -0.2 h -0.2 -0.2 v 0.2 0.2 h 0.2 0.2 z m -1.75431,-3.659344 -1.40634,-2.740652 -0.0197,0.292428 -0.0197,0.292424 1.27952,2.59472 1.27951,2.594724 0.1465,-0.146496 0.1465,-0.146492 -1.40634,-2.740656 z m 65.98366,6.306832 -0.21786,-0.352516 2.18274,-4.447484 2.18276,-4.447484 h 0.6115 0.61151 v 0.544272 0.544272 l -1.99226,4.255724 -1.99227,4.255728 h -0.58412 -0.58414 z m 3.33184,-5.447488 v -0.4 l -1.36119,2.6 -1.36118,2.6 v 0.4 0.4 l 1.36118,-2.6 1.36119,-2.6 z m 0.43881,-0.8 v -0.199996 h -0.2 -0.2 v 0.199996 0.2 h 0.2 0.2 z m 0.76789,-1.799996 0.47624,-1 -0.62206,0.776452 -0.62207,0.776452 v 0.390216 0.390212 l 0.14582,-0.166664 0.14582,-0.166668 z m 38.48876,4.499996 -1.95064,-3.899996 -0.27996,-0.9 -0.27996,-0.9 h 0.83469 0.83469 l 1.99227,4.255724 1.99226,4.255728 v 0.544272 0.544272 h -0.59635 -0.59636 z m 2.2698,2.498308 -0.4564,-1.001688 -0.16743,0.167432 -0.16743,0.167432 0.44648,0.834256 0.44648,0.83426 h 0.17735 0.17735 z m -0.72645,-1.598308 v -0.2 h -0.2 -0.2 v 0.2 0.2 h 0.2 0.2 z m -1.75431,-3.659344 -1.40634,-2.740652 -0.0197,0.292428 -0.0197,0.292424 1.27952,2.59472 1.27951,2.594724 0.1465,-0.146496 0.14649,-0.146492 -1.40634,-2.740656 z m 25.18366,6.306832 -0.21786,-0.352516 2.18274,-4.447484 2.18276,-4.447484 h 0.6115 0.61151 v 0.544272 0.544272 l -1.99226,4.255724 -1.99227,4.255728 h -0.58412 -0.58414 z m 3.33184,-5.447488 v -0.4 l -1.36119,2.6 -1.36118,2.6 v 0.4 0.4 l 1.36118,-2.6 1.36119,-2.6 z m 0.43881,-0.8 v -0.199996 h -0.2 -0.2 v 0.199996 0.2 h 0.2 0.2 z m 0.76789,-1.799996 0.47624,-1 -0.62206,0.776452 -0.62207,0.776452 v 0.390216 0.390212 l 0.14582,-0.166664 0.14582,-0.166668 z m -91.56789,6.199996 v -1.4 h 1.2 1.2 v 1.4 1.4 h -1.2 -1.2 z m 1.92385,-0.1 -0.1348,-0.7 h -0.58905 -0.58904 l -0.13481,0.7 -0.13481,0.7 h 0.85866 0.85866 z M 55.681662,51.137564 v -5.8 h 0.8 0.8 v 5.8 5.8 h -0.8 -0.8 z m 1.097356,-2.6825 -0.1384,-2.9175 -0.0012,5.6 -0.0012,5.6 0.139536,-2.6825 0.139532,-2.6825 -0.1384,-2.9175 z m 73.702642,2.6825 v -5.8 h 0.8 0.8 v 5.8 5.8 h -0.8 -0.8 z m 1.09736,-2.6825 -0.1384,-2.9175 -0.001,5.6 -0.001,5.6 0.13953,-2.6825 0.13954,-2.6825 -0.1384,-2.9175 z m 12.50264,2.6825 v -5.8 h 0.8 0.8 v 5.8 5.8 h -0.8 -0.8 z m 1.09736,-2.6825 -0.1384,-2.9175 -10e-4,5.6 -0.001,5.6 0.13953,-2.6825 0.13954,-2.6825 -0.1384,-2.9175 z m 12.50264,2.6825 v -5.8 h 0.8 0.8 v 5.8 5.8 h -0.8 -0.8 z m 1.09736,-2.6825 -0.1384,-2.9175 -0.001,5.6 -0.001,5.6 0.13953,-2.6825 0.13954,-2.6825 -0.1384,-2.9175 z m 12.50264,2.6825 v -5.8 h 0.8 0.8 v 5.8 5.8 h -0.8 -0.8 z m 1.09736,-2.6825 -0.1384,-2.9175 -0.001,5.6 -0.001,5.6 0.13953,-2.6825 0.13954,-2.6825 -0.1384,-2.9175 z m 26.10264,2.6825 v -5.8 h 0.8 0.8 v 5.8 5.8 h -0.8 -0.8 z m 1.09736,-2.6825 -0.1384,-2.9175 -0.001,5.6 -0.001,5.6 0.13953,-2.6825 0.13954,-2.6825 -0.1384,-2.9175 z m 12.50264,2.6825 v -5.8 h 0.8 0.8 v 5.8 5.8 h -0.8 -0.8 z m 1.09736,-2.6825 -0.1384,-2.9175 -10e-4,5.6 -0.001,5.6 0.13953,-2.6825 0.13954,-2.6825 -0.1384,-2.9175 z m 12.50264,2.6825 v -5.8 h 0.8 0.8 v 5.8 5.8 h -0.8 -0.8 z m 1.09736,-2.6825 -0.1384,-2.9175 -0.001,5.6 -0.001,5.6 0.13953,-2.6825 0.13954,-2.6825 -0.1384,-2.9175 z m -126.5189,7.647648 -0.268753,-0.434852 0.375133,-0.375136 0.37514,-0.375136 6.76491,0.109988 6.7649,0.109988 0.13444,0.7 0.13443,0.7 h -7.00572 -7.00572 z m 10.32154,-0.262744 -3.3,-0.134756 -3.3,0.134756 -3.3,0.13476 h 6.6 6.6 z m 23.67846,0.262744 -0.26875,-0.434852 0.38234,-0.38234 0.38234,-0.38234 3.35838,0.117192 3.35839,0.117192 0.13375,0.7 0.13375,0.7 h -3.60572 -3.60572 z m 5.33212,-0.255904 -1.48943,-0.156276 -1.71057,0.153632 -1.71058,0.153636 3.2,0.0028 3.2,0.0028 -1.48942,-0.156272 z m 35.46788,0.255904 -0.26875,-0.434852 0.38234,-0.38234 0.38234,-0.38234 3.35838,0.117192 3.35838,0.117192 0.13376,0.7 0.13375,0.7 h -3.60572 -3.60573 z m 5.33211,-0.255904 -1.48942,-0.156276 -1.71058,0.153632 -1.71057,0.153636 3.2,0.0028 3.2,0.0028 -1.48943,-0.156272 z m 62.66789,0.255904 -0.26875,-0.434852 0.37513,-0.375136 0.37514,-0.375136 6.76491,0.109988 6.7649,0.109988 0.13444,0.7 0.13443,0.7 h -7.00572 -7.00573 z m 10.32154,-0.262744 -3.3,-0.134756 -3.3,0.134756 -3.3,0.13476 h 6.6 6.6 z m -138.65504,-0.829664 -0.20226,-0.327264 2.1571,-4.472736 2.1571,-4.47274 h 0.62155 0.62155 v 0.558468 0.558468 l -1.9806,4.241532 -1.98061,4.241532 h -0.59579 -0.59578 z m 3.71545,-6.27274 v -0.4 l -1.56041,3 -1.5604,3 v 0.4 0.4 l 1.5604,-3 1.56041,-3 z m 0.80748,-1.8 0.47625,-1 -0.62207,0.776452 -0.62207,0.776452 v 0.390216 0.390212 l 0.14582,-0.166664 0.14582,-0.166668 z m 64.83211,7.97516 V 54.48788 l 0.66631,-2.0371 0.6663,-2.037104 -0.47935,-2.038056 -0.47935,-2.038056 -0.23359,-0.9 -0.23358,-0.9 h 0.66619 0.66618 l 0.77166,1.7 0.77166,1.7 v 2 2 l -0.77166,1.7 -0.77166,1.7 h -0.61955 -0.61956 z m 0.8,-0.17516 v -0.2 h -0.2 -0.2 v 0.2 0.2 h 0.2 0.2 z m 0.4,-0.8 v -0.2 h -0.2 -0.2 v 0.2 0.2 h 0.2 0.2 z m 0.91429,-4 v -2.066816 l -0.35714,-0.63818 -0.35715,-0.638176 v 3.343172 3.343172 l 0.35715,-0.638176 0.35714,-0.63818 z m -1.17626,-4.417252 -0.23686,-0.617252 -0.19064,0.19064 -0.19064,0.19064 0.26366,0.426612 0.26366,0.426612 h 0.16384 0.16384 z m 72.50693,9.489992 -0.20226,-0.327264 2.1571,-4.472736 2.1571,-4.47274 h 0.62155 0.62155 v 0.558468 0.558468 l -1.98061,4.241532 -1.9806,4.241532 h -0.59579 -0.59579 z m 3.71545,-6.27274 v -0.4 l -1.56041,3 -1.56041,3 v 0.4 0.4 l 1.56041,-3 1.56041,-3 z m 0.80748,-1.8 0.47624,-1 -0.62206,0.776452 -0.62207,0.776452 v 0.390216 0.390212 l 0.14582,-0.166664 0.14582,-0.166668 z m 2.27707,8.07274 -0.20226,-0.327264 2.1571,-4.472736 2.1571,-4.47274 h 0.62155 0.62155 v 0.558468 0.558468 l -1.98061,4.241532 -1.9806,4.241532 h -0.59579 -0.59579 z m 3.71545,-6.27274 v -0.4 l -1.56041,3 -1.56041,3 v 0.4 0.4 l 1.56041,-3 1.56041,-3 z m 0.80748,-1.8 0.47624,-1 -0.62206,0.776452 -0.62207,0.776452 v 0.390216 0.390212 l 0.14582,-0.166664 0.14582,-0.166668 z m 9.07707,8.07274 -0.20226,-0.327264 2.1571,-4.472736 2.1571,-4.47274 h 0.62155 0.62155 v 0.558468 0.558468 l -1.98061,4.241532 -1.9806,4.241532 h -0.59579 -0.59579 z m 3.71545,-6.27274 v -0.4 l -1.56041,3 -1.56041,3 v 0.4 0.4 l 1.56041,-3 1.56041,-3 z m 0.80748,-1.8 0.47624,-1 -0.62206,0.776452 -0.62207,0.776452 v 0.390216 0.390212 l 0.14582,-0.166664 0.14582,-0.166668 z M 83.281663,52.5498 l -2.6,-1.06578 -0.118583,-0.802744 -0.118584,-0.80274 2.728488,-1.070488 2.728487,-1.070484 h 0.490096 0.490096 v 0.622492 0.622492 l -1.794028,0.793584 -1.794027,0.793584 -0.905972,-0.116076 -0.905973,-0.116076 -0.07828,0.4 -0.07828,0.4 1.078279,-0.09177 1.078279,-0.09177 1.7,0.646116 1.7,0.646116 v 0.50286 0.50286 l -0.5,0.181804 -0.5,0.181804 z m 2.8,0.177864 v -0.2099 l -0.9,-0.336688 -0.9,-0.336688 -1,-0.252516 -1,-0.25252 1.6,0.76944 1.6,0.76944 0.3,0.02968 0.3,0.02968 v -0.2099 z m -1,-3.60692 1.2,-0.51792 -0.6,-0.0028 -0.6,-0.0028 -1.6,0.76944 -1.6,0.76944 1,-0.248556 1,-0.24856 1.2,-0.517916 z M 55.770678,36.04256 l 0.110984,-5.695004 0.7,-0.134328 0.7,-0.134324 v 5.829328 5.829332 h -0.810984 -0.81098 z m 1.00834,-2.787496 -0.1384,-2.9175 -0.0012,5.6 -0.0012,5.6 0.139536,-2.6825 0.139532,-2.6825 z m 12.591659,2.787496 0.110984,-5.695004 0.7,-0.134328 0.7,-0.134324 v 5.829328 5.829332 h -0.810984 -0.81098 z m 1.00834,-2.787496 -0.1384,-2.9175 -0.0012,5.6 -0.0012,5.6 0.139536,-2.6825 0.139532,-2.6825 z m 60.191663,2.787496 0.11098,-5.695004 0.7,-0.134328 0.7,-0.134324 v 5.829328 5.829332 h -0.81098 -0.81098 z m 1.00834,-2.787496 -0.1384,-2.9175 -0.001,5.6 -0.001,5.6 0.13953,-2.6825 0.13954,-2.6825 -0.1384,-2.9175 z m 12.59166,2.787496 0.11098,-5.695004 0.7,-0.134328 0.7,-0.134324 v 5.829328 5.829332 h -0.81098 -0.81098 z m 1.00834,-2.787496 -0.1384,-2.9175 -10e-4,5.6 -0.001,5.6 0.13953,-2.6825 0.13954,-2.6825 -0.1384,-2.9175 z m 12.59166,2.787496 0.11098,-5.695004 0.7,-0.134328 0.7,-0.134324 v 5.829328 5.829332 h -0.81098 -0.81098 z m 1.00834,-2.787496 -0.1384,-2.9175 -0.001,5.6 -0.001,5.6 0.13953,-2.6825 0.13954,-2.6825 -0.1384,-2.9175 z m 39.79166,2.787496 0.11098,-5.695004 0.7,-0.134328 0.7,-0.134324 v 5.829328 5.829332 h -0.81098 -0.81098 z m 1.00834,-2.787496 -0.1384,-2.9175 -0.001,5.6 -0.001,5.6 0.13953,-2.6825 0.13954,-2.6825 -0.1384,-2.9175 z m -99.3189,7.647648 -0.268753,-0.434856 0.382343,-0.382336 0.38234,-0.38234 3.35838,0.117192 3.35839,0.117192 0.13375,0.7 0.13375,0.7 h -3.60572 -3.60572 z m 5.33212,-0.255908 -1.48943,-0.156272 -1.71057,0.153632 -1.71058,0.153632 3.2,0.0028 3.2,0.0028 -1.48942,-0.156272 z m 69.46788,0.255908 -0.26875,-0.434856 0.38234,-0.382336 0.38234,-0.38234 3.35838,0.117192 3.35838,0.117192 0.13376,0.7 0.13375,0.7 h -3.60572 -3.60573 z m 5.33211,-0.255908 -1.48942,-0.156272 -1.71058,0.153632 -1.71057,0.153632 3.2,0.0028 3.2,0.0028 -1.48943,-0.156272 z m 35.46789,0.255908 -0.26875,-0.434856 0.37513,-0.375136 0.37514,-0.375136 6.76491,0.109992 6.7649,0.109988 0.13444,0.7 0.13443,0.7 h -7.00572 -7.00573 z m 10.32154,-0.262744 -3.3,-0.13476 -3.3,0.13476 -3.3,0.13476 h 6.6 6.6 z m 16.87846,0.262744 -0.26875,-0.434856 0.38234,-0.382336 0.38234,-0.38234 3.35838,0.117192 3.35838,0.117192 0.13376,0.7 0.13375,0.7 h -3.60572 -3.60573 z m 5.33211,-0.255908 -1.48942,-0.156272 -1.71058,0.153632 -1.71057,0.153632 3.2,0.0028 3.2,0.0028 -1.48943,-0.156272 z m 15.06789,0.255908 -0.26875,-0.434856 0.38234,-0.382336 0.38234,-0.38234 3.35838,0.117192 3.35838,0.117192 0.13376,0.7 0.13375,0.7 h -3.60572 -3.60573 z m 5.33211,-0.255908 -1.48942,-0.156272 -1.71058,0.153632 -1.71057,0.153632 3.2,0.0028 3.2,0.0028 -1.48943,-0.156272 z M 73.926621,39.8103 73.724357,39.48304 75.881459,35.0103 78.03856,30.537564 h 0.621552 0.621551 v 0.558468 0.558468 l -1.980606,4.241532 -1.980606,4.241532 h -0.595786 -0.595788 z m 4.114864,-7.072736 v -0.4 l -1.759822,3.4 -1.759818,3.4 v 0.4 0.4 l 1.759818,-3.4 1.759822,-3.4 z m 0.592801,-1.220776 0.238214,-0.620776 -0.395418,0.244384 -0.395419,0.24438 v 0.376392 0.376396 h 0.157205 0.157204 z m 8.892333,8.293512 -0.20226,-0.32726 2.1571,-4.47274 2.1571,-4.472736 h 0.621552 0.621552 v 0.558468 0.558468 l -1.980608,4.241532 -1.980604,4.241532 h -0.595788 -0.595788 z m 4.114864,-7.072736 v -0.4 l -1.75982,3.4 -1.75982,3.4 v 0.4 0.4 l 1.75982,-3.4 1.75982,-3.4 z m 0.592804,-1.220776 0.238212,-0.620776 -0.395416,0.244384 -0.39542,0.24438 v 0.376392 0.376396 h 0.157204 0.157204 z m 24.450713,4.227436 -2.20334,-4.393336 v -0.406664 -0.40666 h 0.79104 0.79104 l 2.00896,4.258996 2.00896,4.259 v 0.541 0.541004 h -0.59666 -0.59665 z m 2.11602,2.202116 -0.87024,-1.791224 -0.15246,0.15246 -0.15246,0.152464 0.83603,1.63876 0.83603,1.638764 h 0.18668 0.18667 z m -2.27347,-4.86876 -1.20741,-2.340016 -0.0192,0.291136 -0.0192,0.29114 1.07785,2.197684 1.07784,2.197684 0.14881,-0.148804 0.1488,-0.148804 z m 74.95745,2.666644 -2.20334,-4.393336 v -0.406664 -0.40666 h 0.79104 0.79104 l 2.00896,4.258996 2.00896,4.259 v 0.541 0.541004 h -0.59666 -0.59665 z m 2.11602,2.202116 -0.87024,-1.791224 -0.15247,0.15246 -0.15246,0.152464 0.83604,1.63876 0.83603,1.638764 h 0.18667 0.18668 z m -2.27347,-4.86876 -1.20741,-2.340016 -0.0192,0.291136 -0.0192,0.29114 1.07785,2.197684 1.07784,2.197684 0.1488,-0.148804 0.14881,-0.148804 z m 38.99907,6.73272 -0.20226,-0.32726 2.1571,-4.47274 2.1571,-4.472736 h 0.62155 0.62155 v 0.558468 0.558468 l -1.98061,4.241532 -1.9806,4.241532 h -0.59579 -0.59579 z m 4.11486,-7.072736 v -0.4 l -1.75982,3.4 -1.75982,3.4 v 0.4 0.4 l 1.75982,-3.4 1.75982,-3.4 z m 0.59281,-1.220776 0.23821,-0.620776 -0.39542,0.244384 -0.39542,0.24438 v 0.376392 0.376396 h 0.15721 0.1572 z m 24.45071,4.227436 -2.20334,-4.393336 v -0.406664 -0.40666 h 0.79104 0.79104 l 2.00896,4.258996 2.00896,4.259 v 0.541 0.541004 h -0.59666 -0.59665 z m 2.11602,2.202116 -0.87024,-1.791224 -0.15247,0.15246 -0.15246,0.152464 0.83604,1.63876 0.83603,1.638764 h 0.18667 0.18668 z m -2.27347,-4.86876 -1.20741,-2.340016 -0.0192,0.291136 -0.0192,0.29114 1.07785,2.197684 1.07784,2.197684 0.1488,-0.148804 0.14881,-0.148804 z m 25.39907,6.73272 -0.20226,-0.32726 2.1571,-4.47274 2.1571,-4.472736 h 0.62155 0.62155 v 0.558468 0.558468 l -1.98061,4.241532 -1.9806,4.241532 h -0.59579 -0.59579 z m 4.11486,-7.072736 v -0.4 l -1.75982,3.4 -1.75982,3.4 v 0.4 0.4 l 1.75982,-3.4 1.75982,-3.4 z m 0.59281,-1.220776 0.23821,-0.620776 -0.39542,0.244384 -0.39542,0.24438 v 0.376392 0.376396 h 0.15721 0.1572 z m -118.15263,0.650104 v -2.029328 h 0.82192 0.82191 l -0.12191,1.8964 -0.12192,1.896404 -0.7,0.132928 -0.7,0.132928 z m 1.2,-0.0057 V 30.98478 l -0.4,-0.247216 -0.4,-0.247212 v 1.423608 1.423604 h 0.4 0.4 z m 39.6,0.0057 v -2.029328 h 0.82192 0.82191 l -0.12191,1.8964 -0.12192,1.896404 -0.7,0.132928 -0.7,0.132928 z m 1.2,-0.0057 V 30.98478 l -0.4,-0.247216 -0.4,-0.247212 v 1.423608 1.423604 h 0.4 0.4 z M 55.770678,20.842564 l 0.110984,-5.695004 0.7,-0.134328 0.7,-0.134324 v 5.829328 5.829332 h -0.810984 -0.81098 z m 1.00834,-2.787496 -0.1384,-2.9175 -0.0012,5.6 -0.0012,5.6 0.139536,-2.6825 0.139532,-2.6825 z m 12.591659,2.787496 0.110984,-5.695004 0.7,-0.134328 0.7,-0.134324 v 5.829328 5.829332 h -0.810984 -0.81098 z m 1.00834,-2.787496 -0.1384,-2.9175 -0.0012,5.6 -0.0012,5.6 0.139536,-2.6825 0.139532,-2.6825 -0.1384,-2.9175 z m 9.481106,7.647648 -0.268754,-0.434856 0.369547,-0.369548 0.369548,-0.369544 16.970195,0.1044 16.970201,0.1044 0.13473,0.7 0.13473,0.7 H 97.334599 80.128877 Z m 25.748467,-0.264612 -8.273075,-0.116604 -8.526924,0.116424 -8.526928,0.116424 16.8,1.8e-4 16.799997,1.8e-4 z m 15.05153,0.264612 -0.26875,-0.434856 0.38234,-0.382336 0.38234,-0.38234 3.35838,0.117192 3.35839,0.117192 0.13375,0.7 0.13375,0.7 h -3.60572 -3.60572 z m 5.33212,-0.255908 -1.48943,-0.156272 -1.71057,0.153632 -1.71058,0.153632 3.2,0.0028 3.2,0.0028 -1.48942,-0.156272 z m 21.86788,0.255908 -0.26875,-0.434856 0.38234,-0.382336 0.38234,-0.38234 3.35838,0.117192 3.35838,0.117192 0.13376,0.7 0.13375,0.7 h -3.60572 -3.60573 z m 5.33211,-0.255908 -1.48942,-0.156272 -1.71058,0.153632 -1.71057,0.153632 3.2,0.0028 3.2,0.0028 -1.48943,-0.156272 z m 8.26789,0.255908 -0.26875,-0.434856 0.38234,-0.382336 0.38234,-0.38234 3.35838,0.117192 3.35838,0.117192 0.13376,0.7 0.13375,0.7 h -3.60572 -3.60573 z m 5.33211,-0.255908 -1.48942,-0.156272 -1.71058,0.153632 -1.71057,0.153632 3.2,0.0028 3.2,0.0028 -1.48943,-0.156272 z m 8.26789,0.255908 -0.26875,-0.434856 0.37513,-0.375136 0.37514,-0.375136 6.76491,0.109992 6.7649,0.109988 0.13444,0.7 0.13443,0.7 h -7.00572 -7.00573 z m 10.32154,-0.262744 -3.3,-0.13476 -3.3,0.13476 -3.3,0.13476 h 6.6 6.6 z m 16.87846,0.262744 -0.26875,-0.434856 0.38234,-0.382336 0.38234,-0.38234 3.35838,0.117192 3.35838,0.117192 0.13376,0.7 0.13375,0.7 h -3.60572 -3.60573 z m 5.33211,-0.255908 -1.48942,-0.156272 -1.71058,0.153632 -1.71057,0.153632 3.2,0.0028 3.2,0.0028 -1.48943,-0.156272 z m 8.26789,0.255908 -0.26875,-0.434856 0.37513,-0.375136 0.37514,-0.375136 6.76491,0.109992 6.7649,0.109988 0.13444,0.7 0.13443,0.7 h -7.00572 -7.00573 z m 10.32154,-0.262744 -3.3,-0.13476 -3.3,0.13476 -3.3,0.13476 h 6.6 6.6 z m 10.07846,0.262744 -0.26875,-0.434856 0.37217,-0.372168 0.37217,-0.372168 10.16768,0.10702 10.16769,0.107024 0.13462,0.7 0.13462,0.7 H 246.9346 236.52887 Z m 15.54483,-0.263764 -4.87672,-0.125636 -5.12328,0.125192 -5.12329,0.125192 10,4e-4 10,4e-4 -4.87671,-0.125636 z m 11.65517,0.263764 -0.26875,-0.434856 0.37056,-0.370556 0.37055,-0.37056 13.56923,0.105412 13.56922,0.105412 0.1347,0.7 0.13469,0.7 H 277.5346 263.72887 Z m 20.52154,-0.264472 -6.7,-0.12002 -6.7,0.12002 -6.7,0.120024 h 13.4 13.4 z M 59.465214,10.510956 l -0.26366,-0.426612 0.209752,-0.209752 0.209752,-0.209752 3.5303,-0.0012 3.530303,-0.0012 0.129328,0.63758 0.129332,0.637548 h -3.605723 -3.605724 z m 5.327019,-0.264148 -1.489423,-0.156272 -1.710576,0.153632 -1.710572,0.153632 3.2,0.0028 3.199999,0.0028 -1.489428,-0.156272 z"
       id="path941" />
    <path
       style="fill:#feffff"
       id="path933"
       d="" />
  </g>
</svg>
