<?xml version="1.0" encoding="UTF-8" standalone="no"?>
<svg
   xmlns:osb="http://www.openswatchbook.org/uri/2009/osb"
   xmlns:dc="http://purl.org/dc/elements/1.1/"
   xmlns:cc="http://creativecommons.org/ns#"
   xmlns:rdf="http://www.w3.org/1999/02/22-rdf-syntax-ns#"
   xmlns:svg="http://www.w3.org/2000/svg"
   xmlns="http://www.w3.org/2000/svg"
   xmlns:sodipodi="http://sodipodi.sourceforge.net/DTD/sodipodi-0.dtd"
   xmlns:inkscape="http://www.inkscape.org/namespaces/inkscape"
   data-name="Layer 1"
   id="Layer_1"
   viewBox="0 0 6.3423001 7.1052332"
   version="1.1"
   sodipodi:docname="shopping_cart.svg"
   inkscape:version="1.0.1 (3bc2e813f5, 2020-09-07)"
   width="6.3422999"
   height="7.1052332">
  <metadata
     id="metadata889">
    <rdf:RDF>
      <cc:Work
         rdf:about="">
        <dc:format>image/svg+xml</dc:format>
        <dc:type
           rdf:resource="http://purl.org/dc/dcmitype/StillImage" />
        <dc:title></dc:title>
      </cc:Work>
    </rdf:RDF>
  </metadata>
  <defs
     id="defs887">
    <linearGradient
       id="linearGradient923"
       osb:paint="solid">
      <stop
         style="stop-color:#e5e9f0;stop-opacity:1;"
         offset="0"
         id="stop921" />
    </linearGradient>
  </defs>
  <sodipodi:namedview
     pagecolor="#ffffff"
     bordercolor="#666666"
     borderopacity="1"
     objecttolerance="10"
     gridtolerance="10"
     guidetolerance="10"
     inkscape:pageopacity="0"
     inkscape:pageshadow="2"
     inkscape:window-width="1920"
     inkscape:window-height="1023"
     id="namedview885"
     showgrid="false"
     inkscape:zoom="54.224355"
     inkscape:cx="-2.4028352"
     inkscape:cy="2.9921298"
     inkscape:window-x="0"
     inkscape:window-y="27"
     inkscape:window-maximized="1"
     inkscape:current-layer="Layer_1"
     fit-margin-top="0"
     fit-margin-left="0"
     fit-margin-right="0"
     fit-margin-bottom="0"
     inkscape:document-rotation="0" />
  <path
     d="M 5.7591001,2.1471688 V 3.750969 L 2.0995199,4.398321 1.3850999,1.5639688 H 0.29159985 c -0.3887998,0 -0.3887998,0.5832 0,0.5832 h 0.647352 L 1.8808198,5.937969 h 3.8782803 v -0.5832 H 2.3357158 L 2.2394879,4.966941 6.3423001,4.240857 V 2.1471688 Z M 1.9682999,6.229569 c -0.3897089,0 -0.5848052,0.47114 -0.3092729,0.746672 0.2755325,0.275532 0.7466728,0.08044 0.7466728,-0.309272 0,-0.24157 -0.1958306,-0.4374 -0.4373999,-0.4374 z m 3.4992001,0 c -0.389709,0 -0.584806,0.47114 -0.3092729,0.746672 C 5.43376,7.251773 5.9049,7.056681 5.9049,6.666969 c 0,-0.24157 -0.195831,-0.4374 -0.4374,-0.4374 z"
     id="path882"
     sodipodi:nodetypes="ccccsscccccccccssssssss"
     style="fill:#e5e9f0;fill-opacity:1;fill-rule:nonzero;stroke:none;stroke-width:0;stroke-linecap:round;stroke-miterlimit:4;stroke-dasharray:none;stroke-dashoffset:0;stroke-opacity:1" />
  <path
     style="color:#000000;font-style:normal;font-variant:normal;font-weight:normal;font-stretch:normal;font-size:medium;line-height:normal;font-family:sans-serif;font-variant-ligatures:normal;font-variant-position:normal;font-variant-caps:normal;font-variant-numeric:normal;font-variant-alternates:normal;font-variant-east-asian:normal;font-feature-settings:normal;font-variation-settings:normal;text-indent:0;text-align:start;text-decoration:none;text-decoration-line:none;text-decoration-style:solid;text-decoration-color:#000000;letter-spacing:normal;word-spacing:normal;text-transform:none;writing-mode:lr-tb;direction:ltr;text-orientation:mixed;dominant-baseline:auto;baseline-shift:baseline;text-anchor:start;white-space:normal;shape-padding:0;shape-margin:0;inline-size:0;clip-rule:nonzero;display:inline;overflow:visible;visibility:visible;opacity:1;isolation:auto;mix-blend-mode:normal;color-interpolation:sRGB;color-interpolation-filters:linearRGB;solid-color:#000000;solid-opacity:1;vector-effect:none;fill:#e5e9f0;fill-opacity:1;fill-rule:nonzero;stroke:#e5e9f0;stroke-width:0.374718;stroke-linecap:butt;stroke-linejoin:round;stroke-miterlimit:4;stroke-dasharray:none;stroke-dashoffset:0;stroke-opacity:1;color-rendering:auto;image-rendering:auto;shape-rendering:auto;text-rendering:auto;enable-background:accumulate;stop-color:#000000;stop-opacity:1"
     d="m 3.8844808,0.18805387 -2e-4,4.51e-5 c -0.1307221,0.025125 -0.2099341,0.084237 -0.3228451,0.1485436 l -0.4544164,0.2614771 v 5.01e-5 c -0.04483,0.026303 -0.1119791,0.061598 -0.1760612,0.099198 -0.064082,0.0376 -0.1250582,0.077347 -0.1580704,0.1133498 L 2.7726871,0.81093817 2.442118,1.3552588 2.242565,1.6954008 c -0.03115,0.052494 -0.082339,0.1249961 -0.078989,0.189934 0.0012,0.025446 0.019487,0.051755 0.046709,0.077971 0.027233,0.026216 0.063775,0.052382 0.1027135,0.077 0.077879,0.049234 0.1655222,0.092253 0.2071387,0.1155698 l 0.8330816,0.4753669 h 4.99e-5 c 0.07744,0.042597 0.138532,0.08602 0.2045,0.1148762 0.06597,0.028855 0.136849,0.042982 0.232991,0.026822 0.04293,-0.0072 0.120998,-0.046666 0.1995521,-0.090597 0.07854,-0.043922 0.1570879,-0.092343 0.1990462,-0.1172799 l 0.719501,-0.4146926 4.9e-5,-5.01e-5 c 0.03514,-0.020008 0.115968,-0.061331 0.191137,-0.1057646 0.0376,-0.022222 0.07382,-0.045225 0.102297,-0.066826 0.02847,-0.021601 0.04929,-0.041532 0.0561,-0.059102 0.0085,-0.022101 0.0062,-0.052579 6e-4,-0.083105 -0.0056,-0.030526 -0.01449,-0.061095 -0.01988,-0.082596 L 5.137458,1.3749078 5.024062,0.95924517 c -0.01335,-0.048465 -0.02787,-0.1120896 -0.04926,-0.164221 2e-4,-0.0017 0.0019,-0.00354 0.0019,-0.00523 l -0.0038,1.905e-4 c -0.005,-0.011473 -0.0079,-0.02607 -0.01393,-0.035471 -0.02405,-0.037359 -0.07916,-0.070481 -0.138309,-0.099892 -0.05909,-0.02938 -0.122276,-0.054804 -0.162052,-0.075332 l -10e-5,-9.53e-5 -0.397905,-0.2347004 -10e-5,-9.53e-5 c -0.06857,-0.044644 -0.1179962,-0.08612 -0.1725963,-0.1153381 -0.05464,-0.029242 -0.114497,-0.046028 -0.203113,-0.041021 z m 7.999e-4,0.00624 c 0.08756,-0.00492 0.1457961,0.011487 0.1996,0.04028 0.05385,0.028818 0.1032823,0.070252 0.1722673,0.1151534 l 5.1e-5,5.02e-5 0.398319,0.2349779 h 1.011e-4 c 0.0403,0.02081 0.1033919,0.04626 0.1622319,0.07552 0.05884,0.02926 0.11329,0.062564 0.135826,0.097626 0.006,0.00937 0.0092,0.024447 0.01411,0.036165 -0.0012,0.011702 -0.01008,0.026223 -0.02839,0.0425 -0.02,0.017785 -0.0478,0.036849 -0.07769,0.055265 -0.05979,0.03683 -0.127789,0.071093 -0.159179,0.088932 h -5e-5 L 4.1244907,1.3129051 c -0.110604,0.06096 -0.172565,0.1153011 -0.2981049,0.1446587 -0.05175,0.012149 -0.105606,0.023175 -0.1583931,0.017481 C 3.5954028,1.4669648 3.4864218,1.4318168 3.3780308,1.3796858 3.2151056,1.3013576 3.0417367,1.1961218 2.94696,1.1325011 h -5e-5 C 2.9071399,1.1057352 2.8485787,1.0638785 2.8054406,1.0143878 2.7623306,0.96492757 2.7348815,0.90841127 2.7554964,0.85127647 l 0.022152,-0.036395 c 0.031984,-0.034829 0.09265,-0.074638 0.1564992,-0.1121015 0.063909,-0.037499 0.1309864,-0.072798 0.1760589,-0.099245 v 5.01e-5 l 0.4543709,-0.261523 c 0.113178,-0.064458 0.191471,-0.1228613 0.32072,-0.1477575 z m 1.0864674,0.6098973 c 0.01924,0.050153 0.03343,0.1098292 0.04634,0.1567289 l 0.113394,0.41566293 0.101651,0.3779274 c 0.0054,0.021721 0.01433,0.052061 0.01979,0.082131 0.0055,0.030085 0.0074,0.0599 -2e-4,0.079777 -0.0058,0.014915 -0.02592,0.034979 -0.05406,0.056325 -0.02815,0.021351 -0.06421,0.044255 -0.101695,0.066413 -0.07496,0.044311 -0.155604,0.085549 -0.19109,0.1057626 l -0.719563,0.4147443 c -0.04206,0.024995 -0.1205563,0.073346 -0.1989513,0.1171857 -0.0784,0.043842 -0.15712,0.083129 -0.19752,0.089903 -0.09506,0.015977 -0.16432,0.00212 -0.229474,-0.026361 -0.06513,-0.028494 -0.126153,-0.071815 -0.203934,-0.1146 h -5e-5 L 2.5233503,2.1504253 h -5e-5 C 2.4812807,2.1268815 2.3939157,2.0839759 2.3164422,2.0349938 2.2777065,2.0105038 2.2414605,1.9844982 2.2147452,1.9587812 2.18803,1.9330623 2.1710837,1.9076982 2.169933,1.8850646 2.1667656,1.8237032 2.2167139,1.751478 2.2480883,1.6985988 L 2.4475969,1.3585029 2.7470884,0.86537807 c -0.011628,0.054382 0.013894,0.1074218 0.053737,0.15312173 0.04384,0.050298 0.1027995,0.092362 0.1427163,0.1192232 0.095053,0.063808 0.2685082,0.1690674 0.431849,0.2476015 0.108874,0.052366 0.218117,0.087746 0.292,0.095961 0.05409,0.00583 0.108654,-0.00545 0.16052,-0.017622 0.126787,-0.02965 0.189642,-0.084616 0.299771,-0.1453062 v -5.02e-5 L 4.705669,0.98621377 c 0.031,-0.017619 0.09929,-0.052038 0.15941,-0.08907 0.03006,-0.018515 0.05808,-0.037689 0.07857,-0.055912 0.01457,-0.012958 0.02337,-0.025177 0.02821,-0.037044 z"
     id="Selection" />
</svg>
